<svg xmlns="http://www.w3.org/2000/svg" width="110" height="43" viewBox="0 0 110 43" id="logo">
  <g fill="none" fill-rule="evenodd">
    <path fill="#e01115"
          d="M.205 25.794c.043-2.099.065-4.435.065-7.004.01-2.61-.011-4.952-.065-7.018a175.701 175.701 0 00-.102-2.823C.076 8.426.043 8.066 0 7.871l1.562.08 4.62-.08c2.547 0 4.453.396 5.718 1.184 1.265.793 1.901 1.977 1.901 3.552 0 1.654-.765 2.997-2.288 4.027-.83.56-1.805.967-2.919 1.226 1.588.217 2.854.65 3.802 1.3 1.421.957 2.132 2.405 2.132 4.334 0 1.84-.819 3.335-2.461 4.482-1.642 1.147-3.78 1.718-6.419 1.718l-4.086-.08-1.562.08c.044-.196.081-.555.108-1.083.022-.519.054-1.46.097-2.817zm2.805-8.51h1.97c1.73 0 3.103-.38 4.137-1.136 1.028-.761 1.545-1.771 1.545-3.028 0-1.094-.474-1.967-1.422-2.622-.942-.655-2.213-.983-3.801-.983-.872-.01-1.68.053-2.429.185v7.585zm0 10.628c.62.09 1.282.138 1.987.138 2.106 0 3.694-.412 4.776-1.231 1.077-.82 1.615-2.036 1.615-3.647 0-1.417-.527-2.484-1.577-3.198-1.05-.718-2.606-1.078-4.653-1.078H3.01v9.016zm15.648-.946c.04-1.431.065-3.065.065-4.893 0-1.797-.024-3.404-.065-4.815a38.963 38.963 0 00-.08-1.781 8.453 8.453 0 00-.124-.946c.441.073.947.11 1.512.11.555 0 1.056-.037 1.497-.11a6.17 6.17 0 00-.156.983c-.032.364-.056.946-.065 1.744l-.048 4.815c-.018 1.828.024 3.462.064 4.893.024.83.052 1.422.082 1.782.03.364.07.676.123.946-.441-.053-.947-.08-1.513-.08-.554 0-1.055.027-1.496.08.053-.27.093-.582.123-.946.03-.36.057-.952.08-1.782zm1.341-19.513a1.6 1.6 0 011.163.466c.315.309.474.692.474 1.141 0 .455-.159.838-.474 1.147a1.6 1.6 0 01-1.163.465c-.464 0-.854-.156-1.169-.465a1.545 1.545 0 01-.473-1.147c0-.449.158-.832.473-1.141.315-.31.705-.466 1.169-.466zm6.605 19.513c.065-2.621.128-5.67.097-9.148l-.08-9.09a30.075 30.075 0 00-.054-1.798 5.629 5.629 0 00-.135-.93c.441.074.948.111 1.514.111.554 0 1.054-.037 1.496-.111a6.464 6.464 0 00-.102.835c-.027.364-.064.994-.086 1.892a268.08 268.08 0 00-.08 9.075l.08 9.164a28.2 28.2 0 00.054 1.692c.026.36.07.703.134 1.036-.442-.053-.948-.08-1.513-.08-.555 0-1.056.027-1.497.08.043-.206.083-.497.108-.867.024-.359.043-.983.064-1.86zM40.332 30c-2.187 0-3.96-.717-5.315-2.15-1.358-1.437-2.035-3.309-2.035-5.624 0-2.384.663-4.313 1.987-5.787 1.324-1.475 3.053-2.215 5.19-2.215h.033c2.153 0 3.801.598 4.937 1.797.996 1.052 1.555 2.521 1.686 4.413.024.36.062.73.048 1.116l-.032.85v.016c-.474-.074-1.239-.135-2.305-.185a67.118 67.118 0 00-3.187-.08h-5.487v.587c0 1.961.452 3.473 1.362 4.535.91 1.062 2.202 1.596 3.877 1.596a6.7 6.7 0 002.79-.586c.865-.392 1.658-.984 2.384-1.765l.286.354a7.949 7.949 0 00-.285 1.395 9.372 9.372 0 01-2.736 1.3c-.996.291-2.062.433-3.198.433zm3.564-9.196v-.619c0-1.447-.35-2.61-1.044-3.498-.695-.888-1.605-1.332-2.74-1.332-1.412 0-2.47.626-3.189 1.87-.502.87-.834 2.063-.99 3.579h7.963zM57 29.414a4.868 4.868 0 01-2.369.586c-1.239 0-2.158-.318-2.751-.95-.596-.636-.895-1.613-.895-2.934V15.989c-.451-.01-.876.014-1.276.048a1.547 1.547 0 00-.71.233c.043-.387.064-.714.064-.994s-.021-.608-.064-.994c.107.064.226.117.355.164.134.049.243.063.34.068l1.291.08v-.836c0-.464-.021-.924-.07-1.368-.048-.449-.107-.772-.182-.973a16.11 16.11 0 001.545-.57c.42-.186.91-.439 1.47-.761-.075.206-.135.613-.183 1.21a23.33 23.33 0 00-.07 1.887v1.427a54.683 54.683 0 002.714-.096 1.553 1.553 0 00.71-.232 9.095 9.095 0 00-.064.994c0 .28.021.607.065.994a1.553 1.553 0 00-.695-.233 55.868 55.868 0 00-2.73-.096v10.175c0 .893.19 1.58.57 2.05.38.47.932.703 1.653.703A2.48 2.48 0 0057 28.5a3.806 3.806 0 00-.033.45c0 .132.011.29.033.465z"/>
    <path fill="#000"
          d="M75.432 30.28c-2.236 0-4.055-.736-5.448-2.21-1.396-1.476-2.089-3.395-2.089-5.764 0-2.45.744-4.433 2.235-5.96 1.487-1.521 3.424-2.282 5.806-2.282 2.236 0 4.055.738 5.447 2.212 1.396 1.475 2.09 3.4 2.09 5.774 0 2.456-.743 4.44-2.225 5.955-1.485 1.517-3.424 2.276-5.816 2.276zm29.445-8.662c1.432-4.01 1.101-7.672-.363-10.851-4.128-8.964-15.67-10.827-24.18-7.94C68.743 6.758 59.52 19.53 65.133 31.717c4.871 10.58 17.903 10.676 27.453 7.435 6.168-2.092 11.806-6.117 15.534-11.495l1.88.238c-3.602 5.842-10.582 10.856-17.067 13.055-10.111 3.431-24.76 3.593-29.998-7.78C56.87 20.002 65.87 5.845 78.701 1.493c9.457-3.208 23.56-1.637 28.262 8.576 2.072 4.502 1.741 8.607.004 13.114-1.439 3.734-5.544 8.593-8.883 8.435-1.63-.077-3.138-.902-3.226-4.506.042-1.48.063-3.132.063-4.948V20.35c0-1.423-.335-2.533-1.004-3.336-.666-.8-1.595-1.2-2.778-1.2-1.34 0-2.344.434-3.016 1.304-.673.869-1.01 2.178-1.01 3.916v1.098c0 1.88.024 3.559.066 5.03.023.853.051 1.462.08 1.832.03.374.071.695.125.972a12.648 12.648 0 00-1.524-.081c-.56 0-1.064.027-1.508.081.054-.266.093-.587.124-.972.03-.37.058-.979.082-1.832.04-1.471.06-3.15.065-5.03.005-1.847-.006-3.5-.065-4.95a67.585 67.585 0 00-.104-1.966 5.68 5.68 0 00-.102-.836c.423.075.91.114 1.459.114.554 0 1.042-.039 1.465-.114-.054.097-.095.255-.12.477-.024.223-.063.62-.102 1.196l-.066.94a10.5 10.5 0 01.907-1.13c1.147-1.209 2.593-1.8 4.308-1.8 1.611 0 2.886.496 3.83 1.49.945.994 1.417 2.336 1.417 4.036v7.573c0 1.448.315 2.401.98 2.397 2.824-.018 5.648-5.701 6.447-7.941zm-29.19 7.5c1.46 0 2.631-.652 3.51-1.95s1.319-3.037 1.319-5.21c0-2.151-.416-3.815-1.254-4.982-.839-1.169-2.03-1.75-3.575-1.75-1.466 0-2.638.653-3.517 1.957-.878 1.304-1.318 3.048-1.318 5.22 0 2.152.416 3.81 1.253 4.972.84 1.163 2.03 1.744 3.582 1.744z"/>
  </g>
</svg>
