<?xml version="1.0" encoding="UTF-8"?>
<svg width="350px" height="40px" viewBox="0 0 350 40" version="1.1" xmlns="http://www.w3.org/2000/svg" xmlns:xlink="http://www.w3.org/1999/xlink">
    <!-- Generator: Sketch 61.2 (89653) - https://sketch.com -->
    <title>r-smile-logo-long</title>
    <desc>Created with Sketch.</desc>
    <defs>
        <polygon id="path-1" points="0 0.226375 13.5643006 0.226375 13.5643006 14.7705417 0 14.7705417"></polygon>
        <polygon id="path-3" points="0 31.627375 349.659167 31.627375 349.659167 0.416541667 0 0.416541667"></polygon>
    </defs>
    <g id="r-smile-logo-long" stroke="none" stroke-width="1" fill="none" fill-rule="evenodd">
        <g id="Group-79" transform="translate(0.000000, 5.000000)">
            <path d="M174.137125,29.3382917 L185.303792,29.3382917 C186.185875,29.3382917 186.900875,28.6232917 186.900875,27.7412083 L186.900875,23.755375 C186.900875,22.872875 186.185875,22.1582917 185.303792,22.1582917 L174.137125,22.1582917 C173.255042,22.1582917 172.540042,22.872875 172.540042,23.755375 L172.540042,27.7412083 C172.540042,28.6232917 173.255042,29.3382917 174.137125,29.3382917" id="Fill-1" fill="#812990"></path>
            <path d="M138.235625,29.3382917 L163.763125,29.3382917 C164.644792,29.3382917 165.359792,28.6232917 165.359792,27.7412083 L165.359792,23.755375 C165.359792,22.872875 164.644792,22.1582917 163.763125,22.1582917 L138.235625,22.1582917 C137.353542,22.1582917 136.638542,22.872875 136.638542,23.755375 L136.638542,27.7412083 C136.638542,28.6232917 137.353542,29.3382917 138.235625,29.3382917" id="Fill-3" fill="#0066B3"></path>
            <path d="M116.694917,29.3382917 L127.861583,29.3382917 C128.743667,29.3382917 129.458667,28.6232917 129.458667,27.7412083 L129.458667,23.755375 C129.458667,22.872875 128.743667,22.1582917 127.861583,22.1582917 L116.694917,22.1582917 C115.812833,22.1582917 115.097833,22.872875 115.097833,23.755375 L115.097833,27.7412083 C115.097833,28.6232917 115.812833,29.3382917 116.694917,29.3382917" id="Fill-5" fill="#33A3DC"></path>
            <path d="M80.7934167,29.3382917 L106.320917,29.3382917 C107.202583,29.3382917 107.917583,28.6232917 107.917583,27.7412083 L107.917583,23.755375 C107.917583,22.872875 107.202583,22.1582917 106.320917,22.1582917 L80.7934167,22.1582917 C79.91175,22.1582917 79.19675,22.872875 79.19675,23.755375 L79.19675,27.7412083 C79.19675,28.6232917 79.91175,29.3382917 80.7934167,29.3382917" id="Fill-7" fill="#45B97C"></path>
            <path d="M59.2527083,29.3382917 L70.419375,29.3382917 C71.3014583,29.3382917 72.0164583,28.6232917 72.0164583,27.7412083 L72.0164583,23.755375 C72.0164583,22.872875 71.3014583,22.1582917 70.419375,22.1582917 L59.2527083,22.1582917 C58.370625,22.1582917 57.655625,22.872875 57.655625,23.755375 L57.655625,27.7412083 C57.655625,28.6232917 58.370625,29.3382917 59.2527083,29.3382917" id="Fill-9" fill="#FFCC31"></path>
            <path d="M1.81045833,29.3382917 L12.9775417,29.3382917 C13.8592083,29.3382917 14.5742083,28.6232917 14.5742083,27.7412083 L14.5742083,23.755375 C14.5742083,22.872875 13.8592083,22.1582917 12.9775417,22.1582917 L1.81045833,22.1582917 C0.928375,22.1582917 0.213375,22.872875 0.213375,23.755375 L0.213375,27.7412083 C0.213375,28.6232917 0.928375,29.3382917 1.81045833,29.3382917" id="Fill-11" fill="#ED1846"></path>
            <path d="M23.3514167,29.3382917 L48.8789167,29.3382917 C49.7605833,29.3382917 50.4755833,28.6232917 50.4755833,27.7412083 L50.4755833,23.755375 C50.4755833,22.872875 49.7605833,22.1582917 48.8789167,22.1582917 L23.3514167,22.1582917 C22.4693333,22.1582917 21.7543333,22.872875 21.7543333,23.755375 L21.7543333,27.7412083 C21.7543333,28.6232917 22.4693333,29.3382917 23.3514167,29.3382917" id="Fill-13" fill="#F68C47"></path>
            <path d="M105.275417,7.6635 L103.778333,7.6635 L103.778333,3.90225 L105.342083,3.90225 C106.527083,3.90225 107.1975,4.61891667 107.1975,5.76266667 C107.1975,6.90683333 106.527083,7.6635 105.275417,7.6635 M106.08,0.603916667 L100.215833,0.603916667 C99.9733333,0.603916667 99.77625,0.79725 99.77625,1.03641667 L99.77625,13.3589167 C99.77625,14.2455833 100.5075,14.9639167 101.409167,14.9639167 L103.33875,14.9639167 C103.581667,14.9639167 103.778333,14.771 103.778333,14.5318333 L103.778333,10.9905833 L106.08,10.9905833 C109.590833,10.9905833 111.288333,8.55308333 111.288333,5.77641667 C111.288333,3.05016667 109.277083,0.603916667 106.08,0.603916667" id="Fill-15" fill="#ED1846"></path>
            <path d="M139.496,11.6820417 L135.553083,11.6820417 C136.4885,9.646625 136.660167,6.844125 136.660167,4.626625 L136.660167,3.90204167 L139.004333,3.90204167 C139.33975,3.90204167 139.496,4.05579167 139.496,4.385375 L139.496,11.6820417 Z M143.74225,11.660375 L143.47475,11.660375 L143.47475,1.03620833 C143.47475,0.797041667 143.277667,0.603708333 143.035167,0.603708333 L134.501417,0.603708333 C133.595167,0.603708333 132.860167,1.32620833 132.860167,2.21745833 L132.860167,3.90204167 L132.860167,4.31870833 C132.860167,6.73870833 132.826417,9.440375 131.530167,11.660375 L131.306833,11.660375 C130.455167,11.660375 129.764333,12.3395417 129.764333,13.1770417 L129.764333,16.9032917 C129.764333,17.1420417 129.961417,17.3357917 130.203917,17.3357917 L132.900583,17.3357917 C133.1435,17.3357917 133.340167,17.1420417 133.340167,16.9032917 L133.340167,14.9574583 L141.708917,14.9574583 L141.708917,16.9032917 C141.708917,17.1420417 141.905583,17.3357917 142.1485,17.3357917 L144.845167,17.3357917 C145.087667,17.3357917 145.28475,17.1420417 145.28475,16.9032917 L145.28475,13.1770417 C145.28475,12.3395417 144.593917,11.660375 143.74225,11.660375 L143.74225,11.660375 Z" id="Fill-17" fill="#ED1846"></path>
            <path d="M159.859167,0.60375 L157.494167,0.60375 C156.39875,0.60375 155.951667,0.911666667 155.61625,1.88 L153.742917,6.76875 L151.58125,1.88 C151.1575,0.934166667 150.776667,0.60375 149.703333,0.60375 L147.175,0.60375 C146.842083,0.60375 146.63,0.953333333 146.788333,1.24125 L151.85625,10.62125 C151.677917,11.17 151.149583,11.5866667 150.523333,11.5866667 C150.15125,11.5866667 149.779167,11.46125 149.406667,11.2191667 C149.202083,11.0854167 148.924167,11.1545833 148.799167,11.3616667 L147.494583,13.5158333 C147.385,13.6966667 147.415417,13.9375 147.585,14.0658333 C148.43625,14.7091667 149.81125,15.1479167 151.149583,15.1479167 C152.334583,15.1479167 153.273333,14.84 153.94375,14.2029167 C154.63625,13.5654167 155.173333,12.7733333 155.5975,11.80625 L160.264167,1.20458333 C160.386667,0.919583333 160.17375,0.60375 159.859167,0.60375" id="Fill-19" fill="#ED1846"></path>
            <path d="M171.419417,0.60375 L163.869,0.60375 C162.96275,0.60375 162.22775,1.32625 162.22775,2.2175 L162.22775,14.5320833 C162.22775,14.7704167 162.424833,14.9641667 162.667333,14.9641667 L165.79025,14.9641667 C166.03275,14.9641667 166.229833,14.7704167 166.229833,14.5320833 L166.229833,3.90208333 L171.419417,3.90208333 C171.662333,3.90208333 171.859,3.70833333 171.859,3.46958333 L171.859,1.03625 C171.859,0.797083333 171.662333,0.60375 171.419417,0.60375" id="Fill-21" fill="#ED1846"></path>
            <path d="M186.461125,0.60375 L183.811542,0.60375 C183.232375,0.60375 182.696125,0.90375 182.400708,1.39375 L177.912792,8.38625 L177.912792,2.20958333 C177.912792,1.3225 177.181958,0.60375 176.280292,0.60375 L174.351542,0.60375 C174.108625,0.60375 173.911958,0.797083333 173.911958,1.03625 L173.911958,14.5320833 C173.911958,14.7704167 174.108625,14.9641667 174.351542,14.9641667 L177.019875,14.9641667 C177.600708,14.9641667 178.138625,14.6620833 178.433625,14.1695833 L182.899875,7.14125 L182.899875,13.36 C182.899875,14.2458333 183.630292,14.9641667 184.531542,14.9641667 L186.461125,14.9641667 C186.704042,14.9641667 186.900708,14.7704167 186.900708,14.5320833 L186.900708,1.03625 C186.900708,0.797083333 186.704042,0.60375 186.461125,0.60375" id="Fill-23" fill="#ED1846"></path>
            <path d="M26.1352083,0.60375 L17.3972917,0.60375 C16.4910417,0.60375 15.7564583,1.32625 15.7564583,2.2175 L15.7564583,5.76916667 C15.7564583,9.91791667 15.484375,11.1129167 13.528125,11.6020833 C13.324375,11.65375 13.1677083,11.81375 13.1677083,12.0204167 L13.1677083,14.7095833 C13.1677083,14.9545833 13.380625,15.1608333 13.6297917,15.1479167 C17.9514583,14.9366667 19.533125,13.0345833 19.533125,5.81375 L19.533125,3.90208333 L22.0814583,3.90208333 C22.3527083,3.90208333 22.573125,4.11875 22.573125,4.38541667 L22.573125,14.5320833 C22.573125,14.7704167 22.769375,14.9641667 23.011875,14.9641667 L26.1347917,14.9666667 C26.3777083,14.9666667 26.5747917,14.7733333 26.5747917,14.5345833 L26.5747917,1.03625 C26.5747917,0.797083333 26.378125,0.60375 26.1352083,0.60375" id="Fill-25" fill="#ED1846"></path>
            <path d="M46.6695,0.60375 L43.5465833,0.60375 C43.3040833,0.60375 43.107,0.797083333 43.107,1.03625 L43.107,14.53 C43.107,14.7691667 43.3040833,14.9625 43.5465833,14.9625 L46.6695,14.9625 C46.9124167,14.9625 47.1090833,14.7691667 47.1090833,14.53 L47.1090833,1.03625 C47.1090833,0.797083333 46.9124167,0.60375 46.6695,0.60375" id="Fill-27" fill="#ED1846"></path>
            <path d="M56.7057083,11.775625 L55.0519583,11.775625 C54.7169583,11.775625 54.5607083,11.6214583 54.5607083,11.291875 L54.5607083,9.10395833 L56.7277917,9.10395833 C57.7344583,9.10395833 58.2927917,9.645625 58.2927917,10.4214583 C58.2927917,11.1977083 57.711125,11.775625 56.7057083,11.775625 M56.3707083,5.90104167 L54.5607083,5.90104167 L54.5607083,3.90229167 L60.4677917,3.90229167 C60.7107083,3.90229167 60.907375,3.70854167 60.907375,3.469375 L60.907375,1.03645833 C60.907375,0.797291667 60.7107083,0.603958333 60.4677917,0.603958333 L50.9982083,0.603958333 C50.7552917,0.603958333 50.558625,0.797291667 50.558625,1.03645833 L50.558625,13.356875 C50.558625,14.2435417 51.2894583,14.9622917 52.191125,14.9622917 L56.326125,14.9622917 C60.614875,14.9622917 62.4057083,12.899375 62.4057083,10.308125 C62.4057083,7.40604167 60.2077917,5.90104167 56.3707083,5.90104167" id="Fill-29" fill="#ED1846"></path>
            <path d="M35.91,11.775625 L34.4533333,11.775625 C34.1179167,11.775625 33.9616667,11.5872917 33.9616667,11.184375 L33.9616667,8.508125 L35.9320833,8.508125 C36.93875,8.508125 37.4970833,9.17020833 37.4970833,10.119375 C37.4970833,11.0685417 36.9158333,11.775625 35.91,11.775625 M35.575,5.29145833 L33.9616667,5.29145833 L33.9616667,1.03645833 C33.9616667,0.797291667 33.765,0.603958333 33.5220833,0.603958333 L30.3991667,0.603958333 C30.1566667,0.603958333 29.9595833,0.797291667 29.9595833,1.03645833 L29.9595833,13.356875 C29.9595833,14.2435417 30.6908333,14.9622917 31.5920833,14.9622917 L35.5304167,14.9622917 C39.8191667,14.9622917 41.61,12.7610417 41.61,9.994375 C41.61,6.89770833 39.4120833,5.29145833 35.575,5.29145833" id="Fill-31" fill="#ED1846"></path>
            <g id="Group-35" transform="translate(0.000000, 0.377375)">
                <mask id="mask-2" fill="white">
                    <use xlink:href="#path-1"></use>
                </mask>
                <g id="Clip-34"></g>
                <path d="M13.1241667,0.226375 L10.7591667,0.226375 C9.66375,0.226375 9.21666667,0.534291667 8.88125,1.502625 L7.00791667,6.391375 L4.84625,1.502625 C4.4225,0.556791667 4.04166667,0.226375 2.96875,0.226375 L0.44,0.226375 C0.107083333,0.226375 -0.104583333,0.575958333 0.0533333333,0.863875 L5.12125,10.243875 C4.94291667,10.792625 4.41458333,11.2092917 3.78833333,11.2092917 C3.41958333,11.2092917 3.05083333,11.0859583 2.68208333,10.8480417 C2.47333333,10.7130417 2.19625,10.7655417 2.0675,10.9780417 L0.759583333,13.1384583 C0.65125,13.3172083 0.694166667,13.5717917 0.861666667,13.6967917 C1.71375,14.335125 3.08208333,14.7705417 4.41458333,14.7705417 C5.59958333,14.7705417 6.53833333,14.462625 7.20875,13.8255417 C7.90125,13.1880417 8.43833333,12.3959583 8.8625,11.428875 L13.5291667,0.827208333 C13.6516667,0.542208333 13.43875,0.226375 13.1241667,0.226375" id="Fill-33" fill="#ED1846" mask="url(#mask-2)"></path>
            </g>
            <path d="M85.25975,11.6499167 C83.1389167,11.6499167 81.8389167,9.91241667 81.8389167,7.7695 C81.8389167,5.62575 83.2355833,3.88825 85.25975,3.88825 C87.4105833,3.88825 88.6805833,5.62575 88.6805833,7.7695 C88.6805833,9.91241667 87.50725,11.6499167 85.25975,11.6499167 M92.1176667,0.603666667 L89.0080833,0.603666667 C88.7618333,0.603666667 88.5618333,0.80325 88.5618333,1.05033333 L88.5618333,1.91991667 C87.54475,0.981166667 86.14725,0.416583333 84.3118333,0.416583333 C80.7285,0.416583333 77.8230833,3.71491667 77.8230833,7.78325 C77.8230833,11.8515833 80.7285,15.1495 84.3118333,15.1495 C86.186,15.1495 87.6143333,14.5499167 88.6426667,13.5528333 C88.86725,14.2265833 89.58725,14.9624167 90.5630833,14.9624167 L92.1176667,14.9624167 C92.3643333,14.9624167 92.5639167,14.7628333 92.5639167,14.5165833 L92.5639167,1.05033333 C92.5639167,0.80325 92.3643333,0.603666667 92.1176667,0.603666667" id="Fill-36" fill="#ED1846"></path>
            <path d="M74.5061667,8.99366667 C73.9199167,7.91116667 73.04575,7.67075 72.8940833,7.63616667 C73.04575,7.60158333 73.9199167,7.36116667 74.5061667,6.27825 L77.0561667,1.22783333 C77.20075,0.940333333 76.98825,0.603666667 76.662,0.603666667 L73.2915833,0.603666667 C73.1203333,0.603666667 72.9645,0.702 72.8899167,0.85575 L70.6395,5.50908333 C70.39325,5.99241667 69.9690833,5.99241667 69.4099167,5.99241667 L68.8736667,5.99241667 L68.8736667,2.20908333 C68.8736667,1.32241667 68.14325,0.603666667 67.2411667,0.603666667 L65.3128333,0.603666667 C65.0699167,0.603666667 64.8728333,0.797416667 64.8728333,1.03575 L64.8728333,14.532 C64.8728333,14.77075 65.0699167,14.9645 65.3128333,14.9645 L68.4340833,14.9645 C68.677,14.9645 68.8736667,14.77075 68.8736667,14.532 L68.8736667,9.27991667 L69.4099167,9.27991667 C69.9690833,9.27991667 70.39325,9.27991667 70.6395,9.76325 L73.0465833,14.7128333 C73.1211667,14.8665833 73.277,14.9645 73.44825,14.9645 L76.8190833,14.9645 C77.1449167,14.9645 77.3574167,14.6274167 77.2128333,14.3403333 L74.5061667,8.99366667 Z" id="Fill-38" fill="#ED1846"></path>
            <path d="M120.311667,11.6499167 C118.190833,11.6499167 116.890833,9.91241667 116.890833,7.7695 C116.890833,5.62575 118.2875,3.88825 120.311667,3.88825 C122.4625,3.88825 123.7325,5.62575 123.7325,7.7695 C123.7325,9.91241667 122.559167,11.6499167 120.311667,11.6499167 M127.169583,0.603666667 L124.06,0.603666667 C123.81375,0.603666667 123.614167,0.80325 123.614167,1.05033333 L123.614167,1.91991667 C122.596667,0.981166667 121.199167,0.416583333 119.36375,0.416583333 C115.780417,0.416583333 112.875417,3.71491667 112.875417,7.78325 C112.875417,11.8515833 115.780417,15.1495 119.36375,15.1495 C121.237917,15.1495 122.66625,14.5499167 123.694583,13.5528333 C123.919167,14.2265833 124.639167,14.9624167 125.615,14.9624167 L127.169583,14.9624167 C127.41625,14.9624167 127.615833,14.7628333 127.615833,14.5165833 L127.615833,1.05033333 C127.615833,0.80325 127.41625,0.603666667 127.169583,0.603666667" id="Fill-40" fill="#ED1846"></path>
            <polygon id="Fill-42" fill="#812990" points="196.056875 5.78320833 200.840625 0.613208333 202.969792 0.613208333 198.868125 5.01945833 203.273542 11.249875 201.219375 11.249875 197.726042 6.23570833 196.056875 8.06029167 196.056875 11.249875 194.388125 11.249875 194.388125 0.613208333 196.056875 0.613208333"></polygon>
            <path d="M206.539458,8.73529167 C207.303625,9.50154167 208.238208,9.884875 209.343208,9.884875 C210.448625,9.884875 211.383208,9.50154167 212.146958,8.73529167 C212.911125,7.96820833 213.293208,7.03445833 213.293208,5.93154167 C213.293208,4.82904167 212.911125,3.89570833 212.146958,3.13154167 C211.383208,2.367375 210.448625,1.98529167 209.343208,1.98529167 C208.238208,1.98529167 207.303625,2.367375 206.539458,3.13154167 C205.775708,3.89570833 205.393625,4.82904167 205.393625,5.93154167 C205.393625,7.03445833 205.775708,7.96820833 206.539458,8.73529167 M205.341542,2.052375 C206.419875,0.994041667 207.753625,0.464458333 209.343208,0.464458333 C210.933208,0.464458333 212.266958,0.994041667 213.344875,2.052375 C214.422792,3.11029167 214.961958,4.403625 214.961958,5.93154167 C214.961958,7.45904167 214.422792,8.75279167 213.344875,9.811125 C212.266958,10.8690417 210.933208,11.3982083 209.343208,11.3982083 C207.753625,11.3982083 206.419875,10.8690417 205.341542,9.811125 C204.263625,8.75279167 203.724458,7.45904167 203.724458,5.93154167 C203.724458,4.403625 204.263625,3.11029167 205.341542,2.052375" id="Fill-44" fill="#812990"></path>
            <path d="M223.957292,0.676208333 C224.451875,0.817041667 224.861042,0.989125 225.184792,1.191625 C225.509375,1.39495833 225.791875,1.59454167 226.033958,1.79245833 C226.276042,1.990375 226.453958,2.16079167 226.568125,2.304125 L226.731458,2.51204167 L225.670625,3.57995833 C225.640625,3.54079167 225.598125,3.48495833 225.541042,3.41329167 C225.483958,3.34120833 225.354792,3.211625 225.151458,3.02370833 C224.948542,2.83620833 224.731042,2.67370833 224.498542,2.537875 C224.266458,2.40245833 223.963542,2.27579167 223.590208,2.160375 C223.216875,2.04370833 222.822292,1.98579167 222.406875,1.98579167 C221.304375,1.98579167 220.369792,2.367875 219.603542,3.13204167 C218.836875,3.89579167 218.453542,4.82870833 218.453542,5.93120833 C218.453542,7.034125 218.835625,7.96829167 219.599792,8.73495833 C220.363542,9.501625 221.299375,9.885375 222.406875,9.885375 C222.822292,9.885375 223.219375,9.826625 223.597708,9.710375 C223.975625,9.594125 224.289792,9.45454167 224.539375,9.29120833 C224.789375,9.12829167 225.009375,8.96620833 225.199375,8.80579167 C225.389792,8.64495833 225.531875,8.507875 225.626458,8.39370833 L225.745208,8.20870833 L226.813125,9.27704167 C226.773542,9.33579167 226.712708,9.41370833 226.631458,9.510375 C226.549792,9.60704167 226.368958,9.77579167 226.089792,10.0182917 C225.810208,10.260375 225.513542,10.4762083 225.199375,10.6637083 C224.886042,10.851625 224.475208,11.0207917 223.968542,11.171625 C223.462292,11.3224583 222.941458,11.397875 222.406875,11.397875 C220.814792,11.397875 219.479792,10.8687083 218.401458,9.81079167 C217.323542,8.75245833 216.784792,7.45954167 216.784792,5.93120833 C216.784792,4.40329167 217.323542,3.110375 218.401458,2.05204167 C219.479792,0.993708333 220.814792,0.464958333 222.406875,0.464958333 C222.946042,0.464958333 223.462708,0.535375 223.957292,0.676208333" id="Fill-46" fill="#812990"></path>
            <polygon id="Fill-48" fill="#812990" points="238.574792 0.613125 240.021875 0.613125 240.021875 11.249375 238.352292 11.249375 238.352292 3.505625 234.473542 8.36479167 230.601458 3.505625 230.601458 11.249375 228.932292 11.249375 228.932292 0.613125 230.371875 0.613125 234.473542 5.783125"></polygon>
            <polygon id="Fill-50" fill="#812990" points="250.722 9.72891667 250.722 11.2493333 243.052833 11.2493333 243.052833 0.613083333 250.5745 0.613083333 250.5745 2.1335 244.722 2.1335 244.722 4.94516667 249.357833 4.94516667 249.357833 6.46516667 244.722 6.46516667 244.722 9.72891667"></polygon>
            <polygon id="Fill-52" fill="#812990" points="259.829292 0.613125 259.829292 2.13354167 256.640542 2.13354167 256.640542 11.249375 254.970958 11.249375 254.970958 2.13354167 251.782208 2.13354167 251.782208 0.613125"></polygon>
            <polygon id="Fill-54" fill="#812990" points="269.018333 11.2495 269.018333 3.57991667 263.09125 11.2495 261.6525 11.2495 261.6525 0.613666667 263.321667 0.613666667 263.321667 8.28991667 269.247917 0.613666667 270.687083 0.613666667 270.687083 11.2495"></polygon>
            <polygon id="Fill-56" fill="#812990" points="275.395292 5.78320833 280.179042 0.613208333 282.307792 0.613208333 278.206125 5.01945833 282.611958 11.249875 280.557792 11.249875 277.064042 6.23570833 275.395292 8.06029167 275.395292 11.249875 273.725708 11.249875 273.725708 0.613208333 275.395292 0.613208333"></polygon>
            <path d="M286.556167,6.91804167 L290.049917,6.91804167 L288.306583,2.51220833 L286.556167,6.91804167 Z M287.468667,0.613458333 L289.137417,0.613458333 L293.544083,11.2497083 L291.800333,11.2497083 L290.65825,8.43804167 L285.94825,8.43804167 L284.80575,11.2497083 L283.062833,11.2497083 L287.468667,0.613458333 Z" id="Fill-58" fill="#812990"></path>
            <polygon id="Fill-60" fill="#812990" points="202.47575 18.6498333 202.47575 20.17775 199.271167 20.17775 199.271167 29.3385833 197.59325 29.3385833 197.59325 20.17775 194.387833 20.17775 194.387833 18.6498333"></polygon>
            <path d="M205.914875,26.81225 C206.682792,27.58225 207.621958,27.96725 208.732375,27.96725 C209.843208,27.96725 210.782792,27.58225 211.550292,26.81225 C212.317792,26.0414167 212.701958,25.10225 212.701958,23.9939167 C212.701958,22.8864167 212.317792,21.9485 211.550292,21.1801667 C210.782792,20.4126667 209.843208,20.0285 208.732375,20.0285 C207.621958,20.0285 206.682792,20.4126667 205.914875,21.1801667 C205.146958,21.9485 204.763208,22.8864167 204.763208,23.9939167 C204.763208,25.10225 205.146958,26.0414167 205.914875,26.81225 M204.710708,20.096 C205.794458,19.03225 207.134875,18.5005833 208.732375,18.5005833 C210.330292,18.5005833 211.670708,19.03225 212.754042,20.096 C213.837375,21.1593333 214.379042,22.4589167 214.379042,23.9939167 C214.379042,25.5301667 213.837375,26.82975 212.754042,27.8930833 C211.670708,28.9564167 210.330292,29.4880833 208.732375,29.4880833 C207.134875,29.4880833 205.794458,28.9564167 204.710708,27.8930833 C203.627792,26.82975 203.086125,25.5301667 203.086125,23.9939167 C203.086125,22.4589167 203.627792,21.1593333 204.710708,20.096" id="Fill-62" fill="#812990"></path>
            <path d="M221.398708,27.88525 C221.895792,27.88525 222.312875,27.7181667 222.651208,27.3823333 C222.989125,27.0469167 223.158292,26.63025 223.158292,26.1335833 C223.158292,25.6369167 222.990375,25.2198333 222.655375,24.8815 C222.319542,24.5431667 221.900792,24.3744167 221.398708,24.3744167 L218.499125,24.3744167 L218.499125,27.88525 L221.398708,27.88525 Z M218.499125,20.1031667 L218.499125,23.00275 L221.167458,23.00275 C221.584958,23.00275 221.931625,22.8648333 222.207458,22.5894167 C222.483708,22.3131667 222.622042,21.96775 222.622042,21.55275 C222.622042,21.1385833 222.483708,20.7931667 222.207458,20.5169167 C221.931625,20.2410833 221.584958,20.1031667 221.167458,20.1031667 L218.499125,20.1031667 Z M216.822458,29.339 L216.822458,18.6494167 L221.167458,18.6494167 C222.032458,18.6494167 222.770375,18.9356667 223.381625,19.5073333 C223.993708,20.0781667 224.298292,20.7344167 224.298292,21.4748333 C224.298292,21.90275 224.210375,22.2948333 224.033708,22.6523333 C223.857458,23.01025 223.682042,23.2585833 223.508292,23.39775 L223.232458,23.614 C223.272458,23.634 223.328292,23.6673333 223.400792,23.7148333 C223.472875,23.7619167 223.602875,23.864 223.791625,24.0206667 C223.980375,24.1773333 224.143292,24.35025 224.279958,24.5385833 C224.416625,24.7273333 224.543292,24.9719167 224.659958,25.27275 C224.776625,25.5735833 224.835375,25.88525 224.835375,26.2085833 C224.835375,27.06275 224.507458,27.7985833 223.851625,28.4148333 C223.195375,29.0306667 222.378292,29.339 221.398708,29.339 L216.822458,29.339 Z" id="Fill-64" fill="#812990"></path>
            <path d="M229.254333,24.9856667 L232.765167,24.9856667 L231.0135,20.5581667 L229.254333,24.9856667 Z M230.171,18.6494167 L231.848917,18.6494167 L236.276417,29.339 L234.523917,29.339 L233.376417,26.5135833 L228.642667,26.5135833 L227.494333,29.339 L225.743083,29.339 L230.171,18.6494167 Z" id="Fill-66" fill="#812990"></path>
            <path d="M239.785333,20.17775 L239.785333,23.994 L242.3795,23.994 C242.90575,23.994 243.355333,23.8119167 243.72825,23.4465 C244.10075,23.0810833 244.287417,22.629 244.287417,22.0898333 C244.287417,21.5506667 244.10075,21.0973333 243.72825,20.729 C243.355333,20.3615 242.90575,20.17775 242.3795,20.17775 L239.785333,20.17775 Z M242.3795,18.6498333 C243.39825,18.6498333 244.251583,18.984 244.939917,19.6519167 C245.627833,20.3206667 245.972417,21.1331667 245.972417,22.0898333 C245.972417,23.0465 245.627833,23.85775 244.939917,24.5235833 C244.251583,25.189 243.39825,25.5223333 242.3795,25.5223333 L239.785333,25.5223333 L239.785333,29.3385833 L238.107833,29.3385833 L238.107833,18.6498333 L242.3795,18.6498333 Z" id="Fill-68" fill="#812990"></path>
            <mask id="mask-4" fill="white">
                <use xlink:href="#path-3"></use>
            </mask>
            <g id="Clip-71"></g>
            <path d="M257.4875,29.338625 L259.172083,29.338625 L259.172083,18.649875 L257.4875,18.649875 L257.4875,29.338625 Z M252.530417,27.8107083 C253.056667,27.8107083 253.505833,27.6282083 253.879583,27.2632083 C254.252083,26.8977917 254.43875,26.4457083 254.43875,25.9065417 C254.43875,25.367375 254.252083,24.9140417 253.879583,24.5457083 C253.505833,24.1777917 253.056667,23.9944583 252.530417,23.9944583 L250.085417,23.9944583 L250.085417,27.8107083 L252.530417,27.8107083 Z M248.407917,29.338625 L248.407917,18.649875 L250.085417,18.649875 L250.085417,22.4665417 L252.530417,22.4665417 C253.549167,22.4665417 254.40125,22.8007083 255.08625,23.468625 C255.772917,24.137375 256.115417,24.949875 256.115417,25.9065417 C256.115417,26.8627917 255.772917,27.6744583 255.08625,28.3402917 C254.40125,29.0057083 253.549167,29.338625 252.530417,29.338625 L248.407917,29.338625 Z" id="Fill-70" fill="#812990" mask="url(#mask-4)"></path>
            <path d="M267.670667,24.1022917 C267.544,24.8052083 267.391083,25.373125 267.211917,25.805625 C267.033583,26.2377083 266.854417,26.614375 266.67525,26.9347917 C266.497333,27.255625 266.342333,27.4827083 266.213583,27.6177083 L266.02775,27.810625 L271.446917,27.810625 L271.446917,20.1777083 L267.861083,20.1777083 L267.861083,21.8547917 C267.861083,22.6502083 267.798167,23.399375 267.670667,24.1022917 L267.670667,24.1022917 Z M264.349417,27.810625 C264.399417,27.7710417 264.466083,27.703125 264.547333,27.605625 C264.629,27.5089583 264.774833,27.288125 264.983583,26.9422917 C265.191917,26.596875 265.377333,26.218125 265.538583,25.805625 C265.70025,25.3935417 265.848167,24.8302083 265.982333,24.1172917 C266.116917,23.4039583 266.184,22.6502083 266.184,21.8547917 L266.184,18.6497917 L273.130667,18.6497917 L273.130667,27.810625 L274.428167,27.810625 L274.428167,31.6277083 L272.743583,31.6277083 L272.743583,29.3389583 L265.415667,29.3389583 L265.415667,31.6277083 L263.738583,31.6277083 L263.738583,27.810625 L264.349417,27.810625 Z" id="Fill-72" fill="#812990" mask="url(#mask-4)"></path>
            <path d="M285.257333,29.339125 L283.58025,29.339125 L283.58025,20.177875 L279.689,20.177875 L279.689,21.855375 C279.689,23.3907917 279.614,24.675375 279.465667,25.709125 C279.316083,26.7424583 279.0915,27.5274583 278.79025,28.0637083 C278.49025,28.6012083 278.159417,28.9720417 277.799833,29.1787083 C277.439,29.3845417 277.000667,29.487875 276.483583,29.487875 C276.299417,29.487875 276.106083,29.4682917 275.902333,29.4282917 C275.698583,29.3882917 275.539417,29.3487083 275.42525,29.3095417 L275.261083,29.264125 L275.261083,27.6620417 C275.564,27.7612083 275.842333,27.8112083 276.0965,27.8112083 C276.389417,27.8112083 276.641083,27.7374583 276.852333,27.5912083 C277.063583,27.444125 277.263583,27.1699583 277.453167,26.7670417 C277.641917,26.3645417 277.781083,25.7537083 277.87025,24.9337083 C277.959417,24.1137083 278.004,23.0874583 278.004,21.855375 L278.004,18.6499583 L285.257333,18.6499583 L285.257333,29.339125 Z" id="Fill-73" fill="#812990" mask="url(#mask-4)"></path>
            <path d="M290.037208,23.1855417 C290.373042,23.5209583 290.789292,23.688875 291.285542,23.688875 L294.110542,23.688875 L294.110542,20.1772083 L291.285542,20.1772083 C290.789292,20.1772083 290.373042,20.3455417 290.037208,20.6805417 C289.701792,21.016375 289.534292,21.433875 289.534292,21.9334583 C289.534292,22.4322083 289.701792,22.8497083 290.037208,23.1855417 L290.037208,23.1855417 Z M295.788458,29.3392917 L294.110542,29.3392917 L294.110542,25.2167917 L291.665958,25.2167917 L289.377625,29.3392917 L287.543875,29.3392917 L289.988875,25.0680417 C289.928875,25.0480417 289.850958,25.0142917 289.754292,24.9667917 C289.657208,24.920125 289.487208,24.808875 289.243458,24.635125 C288.999708,24.461375 288.783458,24.267625 288.595125,24.053875 C288.405958,23.840125 288.234708,23.5430417 288.080958,23.1630417 C287.927208,22.782625 287.849292,22.3742917 287.849292,21.9367917 C287.849292,21.0122083 288.175958,20.233875 288.830542,19.600125 C289.483042,18.9667917 290.301792,18.6492917 291.285542,18.6492917 L295.788458,18.6492917 L295.788458,29.3392917 Z" id="Fill-74" fill="#812990" mask="url(#mask-4)"></path>
            <path d="M304.295,24.1022917 C304.168333,24.8052083 304.015,25.373125 303.83625,25.805625 C303.6575,26.2377083 303.47875,26.614375 303.299583,26.9347917 C303.121667,27.255625 302.966667,27.4827083 302.837917,27.6177083 L302.651667,27.810625 L308.07125,27.810625 L308.07125,20.1777083 L304.485,20.1777083 L304.485,21.8547917 C304.485,22.6502083 304.422083,23.399375 304.295,24.1022917 L304.295,24.1022917 Z M300.97375,27.810625 C301.023333,27.7710417 301.090417,27.703125 301.171667,27.605625 C301.253333,27.5089583 301.399167,27.288125 301.607917,26.9422917 C301.81625,26.596875 302.00125,26.218125 302.162917,25.805625 C302.324583,25.3935417 302.4725,24.8302083 302.606667,24.1172917 C302.74125,23.4039583 302.807917,22.6502083 302.807917,21.8547917 L302.807917,18.6497917 L309.755,18.6497917 L309.755,27.810625 L311.0525,27.810625 L311.0525,31.6277083 L309.367917,31.6277083 L309.367917,29.3389583 L302.04,29.3389583 L302.04,31.6277083 L300.3625,31.6277083 L300.3625,27.810625 L300.97375,27.810625 Z" id="Fill-75" fill="#812990" mask="url(#mask-4)"></path>
            <path d="M315.250417,26.81225 C316.01875,27.58225 316.958333,27.96725 318.069167,27.96725 C319.179583,27.96725 320.119167,27.58225 320.88625,26.81225 C321.65375,26.0414167 322.037917,25.10225 322.037917,23.9939167 C322.037917,22.8864167 321.65375,21.9485 320.88625,21.1801667 C320.119167,20.4126667 319.179583,20.0285 318.069167,20.0285 C316.958333,20.0285 316.01875,20.4126667 315.250417,21.1801667 C314.482917,21.9485 314.09875,22.8864167 314.09875,23.9939167 C314.09875,25.10225 314.482917,26.0414167 315.250417,26.81225 M314.047083,20.096 C315.130417,19.03225 316.47125,18.5005833 318.069167,18.5005833 C319.666667,18.5005833 321.00625,19.03225 322.09,20.096 C323.174167,21.1593333 323.714583,22.4589167 323.714583,23.9939167 C323.714583,25.5301667 323.174167,26.82975 322.09,27.8930833 C321.00625,28.9564167 319.666667,29.4880833 318.069167,29.4880833 C316.47125,29.4880833 315.130417,28.9564167 314.047083,27.8930833 C312.96375,26.82975 312.422083,25.5301667 312.422083,23.9939167 C312.422083,22.4589167 312.96375,21.1593333 314.047083,20.096" id="Fill-76" fill="#812990" mask="url(#mask-4)"></path>
            <polygon id="Fill-77" fill="#812990" mask="url(#mask-4)" points="335.848583 18.6498333 337.302333 18.6498333 337.302333 29.3385833 335.624833 29.3385833 335.624833 21.5569167 331.7265 26.439 327.836083 21.5569167 327.836083 29.3385833 326.15775 29.3385833 326.15775 18.6498333 327.604417 18.6498333 331.7265 23.84525"></polygon>
            <path d="M342.636917,24.9856667 L346.148167,24.9856667 L344.3965,20.5581667 L342.636917,24.9856667 Z M343.554,18.6494167 L345.231083,18.6494167 L349.659417,29.339 L347.906917,29.339 L346.759417,26.5135833 L342.026083,26.5135833 L340.87775,29.339 L339.126083,29.339 L343.554,18.6494167 Z" id="Fill-78" fill="#812990" mask="url(#mask-4)"></path>
        </g>
    </g>
</svg>