<svg width="350" height="40" xmlns="http://www.w3.org/2000/svg" xmlns:xlink="http://www.w3.org/1999/xlink"><defs><path id="a" d="M0 .226h13.564v14.545H0z"/><path id="c" d="M0 31.627h349.66V.417H0z"/></defs><g transform="translate(0 5)" fill="none" fill-rule="evenodd"><path d="M174.137 29.338h11.167c.882 0 1.597-.715 1.597-1.597v-3.986c0-.882-.715-1.597-1.597-1.597h-11.167c-.882 0-1.597.715-1.597 1.597v3.986c0 .882.715 1.597 1.597 1.597" fill="#812990"/><path d="M138.236 29.338h25.527c.882 0 1.597-.715 1.597-1.597v-3.986c0-.882-.715-1.597-1.597-1.597h-25.527c-.882 0-1.597.715-1.597 1.597v3.986c0 .882.715 1.597 1.597 1.597" fill="#0066B3"/><path d="M116.695 29.338h11.167c.882 0 1.597-.715 1.597-1.597v-3.986c0-.882-.715-1.597-1.597-1.597h-11.167c-.882 0-1.597.715-1.597 1.597v3.986c0 .882.715 1.597 1.597 1.597" fill="#33A3DC"/><path d="M80.793 29.338h25.528c.882 0 1.597-.715 1.597-1.597v-3.986c0-.882-.715-1.597-1.597-1.597H80.793c-.881 0-1.596.715-1.596 1.597v3.986c0 .882.715 1.597 1.596 1.597" fill="#45B97C"/><path d="M59.253 29.338h11.166c.882 0 1.597-.715 1.597-1.597v-3.986c0-.882-.715-1.597-1.597-1.597H59.253c-.882 0-1.597.715-1.597 1.597v3.986c0 .882.715 1.597 1.597 1.597" fill="#FFCC31"/><path d="M1.81 29.338h11.168c.881 0 1.596-.715 1.596-1.597v-3.986c0-.882-.715-1.597-1.596-1.597H1.81c-.882 0-1.597.715-1.597 1.597v3.986c0 .882.715 1.597 1.597 1.597" fill="#ED1846"/><path d="M23.351 29.338H48.88c.882 0 1.597-.715 1.597-1.597v-3.986c0-.882-.715-1.597-1.597-1.597H23.35c-.882 0-1.597.715-1.597 1.597v3.986c0 .882.715 1.597 1.597 1.597" fill="#F68C47"/><path d="M105.275 7.663h-1.497v-3.76h1.564c1.185 0 1.856.716 1.856 1.86 0 1.144-.67 1.9-1.923 1.9m.805-7.06h-5.864a.436.436 0 00-.44.433V13.36c0 .887.731 1.605 1.633 1.605h1.93c.243 0 .44-.193.44-.432V10.99h2.301c3.51 0 5.208-2.438 5.208-5.215 0-2.726-2.01-5.172-5.208-5.172m33.416 11.079h-3.943c.935-2.035 1.107-4.838 1.107-7.055v-.725h2.344c.336 0 .492.154.492.483v7.297zm4.246-.022h-.267V1.036a.436.436 0 00-.44-.432h-8.534c-.906 0-1.64.722-1.64 1.613V4.32c0 2.42-.035 5.121-1.33 7.341h-.224c-.852 0-1.543.68-1.543 1.517v3.726c0 .239.197.433.44.433h2.697c.242 0 .44-.194.44-.433v-1.946h8.368v1.946c0 .239.197.433.44.433h2.696c.243 0 .44-.194.44-.433v-3.726c0-.837-.691-1.517-1.543-1.517zM159.86.604h-2.366c-1.095 0-1.542.308-1.878 1.276l-1.873 4.889-2.162-4.889c-.423-.946-.804-1.276-1.878-1.276h-2.528a.432.432 0 00-.387.637l5.068 9.38a1.409 1.409 0 01-1.333.966c-.372 0-.744-.126-1.116-.368a.436.436 0 00-.608.143l-1.304 2.154c-.11.18-.08.421.09.55.851.643 2.226 1.082 3.565 1.082 1.185 0 2.123-.308 2.794-.945.692-.638 1.23-1.43 1.654-2.397l4.666-10.601a.433.433 0 00-.405-.601m11.561 0h-7.551c-.906 0-1.641.722-1.641 1.613v12.315c0 .238.197.432.44.432h3.122c.243 0 .44-.194.44-.432V3.902h5.19a.436.436 0 00.439-.432V1.036a.436.436 0 00-.44-.432m15.042 0h-2.65c-.579 0-1.115.3-1.41.79l-4.488 6.992V2.21c0-.887-.731-1.606-1.633-1.606h-1.928a.436.436 0 00-.44.432v13.496c0 .238.197.432.44.432h2.668c.58 0 1.119-.302 1.414-.794l4.466-7.03v6.219c0 .886.73 1.604 1.632 1.604h1.93a.436.436 0 00.439-.432V1.036a.436.436 0 00-.44-.432m-160.326 0h-8.738c-.906 0-1.64.722-1.64 1.613V5.77c0 4.149-.273 5.344-2.229 5.833-.204.052-.36.212-.36.418v2.69c0 .245.213.45.462.438 4.321-.211 5.903-2.113 5.903-9.334V3.902h2.548c.272 0 .492.217.492.483v10.147c0 .238.196.432.439.432l3.123.003c.243 0 .44-.194.44-.432V1.036a.436.436 0 00-.44-.432m20.535 0h-3.123a.436.436 0 00-.44.432V14.53c0 .24.197.433.44.433h3.123c.242 0 .44-.194.44-.433V1.036a.436.436 0 00-.44-.432m10.036 11.172h-1.654c-.335 0-.491-.155-.491-.484V9.104h2.167c1.006 0 1.565.542 1.565 1.317 0 .777-.582 1.355-1.587 1.355M56.37 5.9h-1.81V3.902h5.907c.243 0 .44-.193.44-.433V1.036a.436.436 0 00-.44-.432h-9.47a.436.436 0 00-.44.432v12.32c0 .888.731 1.606 1.633 1.606h4.135c4.289 0 6.08-2.063 6.08-4.654 0-2.902-2.198-4.407-6.035-4.407m-20.46 5.875h-1.457c-.335 0-.491-.189-.491-.592V8.508h1.97c1.007 0 1.565.662 1.565 1.611 0 .95-.581 1.657-1.587 1.657m-.335-6.485h-1.613V1.036a.436.436 0 00-.44-.432H30.4a.436.436 0 00-.44.432v12.32c0 .888.732 1.606 1.633 1.606h3.938c4.29 0 6.08-2.201 6.08-4.968 0-3.096-2.198-4.703-6.035-4.703" fill="#ED1846"/><g transform="translate(0 .377)"><mask id="b" fill="#fff"><use xlink:href="#a"/></mask><path d="M13.124.226H10.76c-1.095 0-1.542.308-1.878 1.277L7.008 6.39 4.846 1.503C4.423.557 4.042.226 2.97.226H.44a.432.432 0 00-.387.638l5.068 9.38a1.409 1.409 0 01-1.333.965c-.368 0-.737-.123-1.106-.361a.436.436 0 00-.615.13L.76 13.138a.435.435 0 00.102.559c.852.638 2.22 1.074 3.553 1.074 1.185 0 2.123-.308 2.794-.945.692-.638 1.23-1.43 1.654-2.397L13.529.827a.433.433 0 00-.405-.6" fill="#ED1846" mask="url(#b)"/></g><path d="M85.26 11.65c-2.121 0-3.421-1.738-3.421-3.88 0-2.144 1.397-3.882 3.42-3.882 2.152 0 3.422 1.738 3.422 3.881s-1.174 3.88-3.421 3.88M92.118.605h-3.11c-.246 0-.446.2-.446.446v.87C87.545.98 86.147.417 84.312.417c-3.584 0-6.489 3.298-6.489 7.366 0 4.069 2.906 7.366 6.489 7.366 1.874 0 3.302-.6 4.33-1.596.225.674.945 1.41 1.921 1.41h1.555c.246 0 .446-.2.446-.446V1.05c0-.247-.2-.446-.446-.446m-17.612 8.39c-.586-1.083-1.46-1.323-1.612-1.358.152-.034 1.026-.275 1.612-1.358l2.55-5.05a.433.433 0 00-.394-.624h-3.37a.447.447 0 00-.402.252l-2.25 4.653c-.247.483-.67.483-1.23.483h-.536V2.21c0-.887-.73-1.605-1.633-1.605h-1.928a.436.436 0 00-.44.432v13.496c0 .239.197.432.44.432h3.121c.243 0 .44-.193.44-.432V9.28h.536c.56 0 .983 0 1.23.483l2.407 4.95c.074.154.23.252.401.252h3.371a.433.433 0 00.394-.625l-2.707-5.346zm45.806 2.656c-2.121 0-3.421-1.738-3.421-3.88 0-2.144 1.396-3.882 3.42-3.882 2.151 0 3.421 1.738 3.421 3.881s-1.173 3.88-3.42 3.88M127.17.605h-3.11c-.246 0-.446.2-.446.446v.87C122.597.98 121.2.417 119.364.417c-3.584 0-6.489 3.298-6.489 7.366 0 4.069 2.905 7.366 6.489 7.366 1.874 0 3.302-.6 4.33-1.596.225.674.945 1.41 1.921 1.41h1.555c.246 0 .446-.2.446-.446V1.05c0-.247-.2-.446-.446-.446" fill="#ED1846"/><path fill="#812990" d="M196.057 5.783l4.784-5.17h2.129l-4.102 4.406 4.406 6.23h-2.055l-3.493-5.013-1.67 1.824v3.19h-1.668V.613h1.669zm10.483 2.952c.764.767 1.698 1.15 2.803 1.15 1.106 0 2.04-.383 2.804-1.15.764-.767 1.146-1.7 1.146-2.803s-.382-2.036-1.146-2.8c-.764-.765-1.698-1.147-2.804-1.147-1.105 0-2.04.382-2.804 1.147-.763.764-1.145 1.697-1.145 2.8 0 1.102.382 2.036 1.145 2.803m-1.197-6.683C206.42.994 207.754.464 209.343.464c1.59 0 2.924.53 4.002 1.588 1.078 1.058 1.617 2.352 1.617 3.88 0 1.527-.54 2.82-1.617 3.88-1.078 1.057-2.412 1.586-4.002 1.586-1.59 0-2.923-.529-4.001-1.587-1.078-1.058-1.618-2.352-1.618-3.88 0-1.527.54-2.82 1.618-3.879M223.957.676c.495.141.904.313 1.228.516.324.203.607.403.849.6.242.198.42.369.534.512l.163.208-1.06 1.068-.13-.167a4.41 4.41 0 00-.39-.39 3.746 3.746 0 00-.652-.485 4.413 4.413 0 00-.909-.378 3.945 3.945 0 00-1.183-.174c-1.103 0-2.037.382-2.803 1.146-.767.764-1.15 1.697-1.15 2.8 0 1.102.382 2.036 1.146 2.803.764.767 1.7 1.15 2.807 1.15.415 0 .812-.058 1.19-.175.379-.116.693-.255.942-.419.25-.163.47-.325.66-.485.19-.161.333-.298.427-.412l.12-.185 1.067 1.068c-.04.059-.1.137-.182.233a6.019 6.019 0 01-.541.508c-.28.242-.576.458-.89.646-.314.188-.725.357-1.231.508a5.442 5.442 0 01-1.562.226c-1.592 0-2.927-.53-4.006-1.587-1.077-1.059-1.616-2.351-1.616-3.88 0-1.528.539-2.82 1.616-3.879C219.48.994 220.815.465 222.407.465c.539 0 1.056.07 1.55.211m14.618-.063h1.447V11.25h-1.67V3.506l-3.878 4.859-3.873-4.86v7.744h-1.669V.613h1.44l4.102 5.17zm12.147 9.116v1.52h-7.67V.613h7.523v1.52h-5.853v2.812h4.636v1.52h-4.636V9.73zM259.83.613v1.52h-3.19v9.116h-1.669V2.134h-3.189V.614zm9.188 10.637V3.58l-5.927 7.67h-1.439V.614h1.67V8.29l5.926-7.676h1.44v10.635zm6.377-5.467l4.784-5.17h2.129l-4.102 4.406 4.406 6.23h-2.054l-3.494-5.013-1.669 1.824v3.19h-1.67V.613h1.67zm11.161 1.135h3.494l-1.743-4.406-1.75 4.406zm.913-6.305h1.668l4.407 10.637H291.8l-1.142-2.812h-4.71l-1.142 2.812h-1.743L287.469.613zM202.476 18.65v1.528h-3.205v9.16h-1.678v-9.16h-3.205V18.65zm3.439 8.162c.768.77 1.707 1.155 2.817 1.155 1.111 0 2.05-.385 2.818-1.155.768-.77 1.152-1.71 1.152-2.818s-.384-2.046-1.152-2.814c-.767-.767-1.707-1.151-2.818-1.151-1.11 0-2.05.384-2.817 1.151-.768.768-1.152 1.706-1.152 2.814s.384 2.047 1.152 2.818m-1.204-6.716c1.083-1.064 2.424-1.595 4.021-1.595 1.598 0 2.939.531 4.022 1.595 1.083 1.063 1.625 2.363 1.625 3.898 0 1.536-.542 2.836-1.625 3.9-1.083 1.062-2.424 1.594-4.022 1.594-1.597 0-2.938-.532-4.021-1.595-1.083-1.063-1.625-2.363-1.625-3.9 0-1.534.542-2.834 1.625-3.897m16.688 7.789c.497 0 .914-.167 1.252-.503a1.69 1.69 0 00.507-1.248 1.71 1.71 0 00-.503-1.253c-.335-.338-.754-.507-1.256-.507h-2.9v3.511h2.9zm-2.9-7.782v2.9h2.668c.418 0 .765-.138 1.04-.414.277-.276.415-.621.415-1.036 0-.414-.138-.76-.415-1.036-.275-.276-.622-.414-1.04-.414H218.5zm-1.677 9.236v-10.69h4.345c.865 0 1.603.287 2.215.858.612.571.916 1.227.916 1.968 0 .428-.088.82-.264 1.177-.177.358-.352.607-.526.746l-.276.216c.04.02.096.053.169.1.072.048.202.15.39.307.19.156.352.33.489.518s.263.433.38.734c.117.3.175.612.175.936 0 .854-.328 1.59-.983 2.206-.657.616-1.474.924-2.453.924h-4.577zm12.432-4.353h3.511l-1.751-4.428-1.76 4.428zm.917-6.337h1.678l4.427 10.69h-1.752l-1.148-2.825h-4.733l-1.149 2.825h-1.75l4.427-10.69zm9.614 1.529v3.816h2.595c.526 0 .975-.182 1.348-.547.373-.366.56-.818.56-1.357 0-.54-.187-.993-.56-1.361a1.852 1.852 0 00-1.349-.551h-2.594zm2.595-1.528c1.018 0 1.872.334 2.56 1.002a3.273 3.273 0 011.032 2.438 3.26 3.26 0 01-1.032 2.434c-.688.665-1.542.998-2.56.998h-2.595v3.817h-1.677v-10.69h4.272z"/><mask id="d" fill="#fff"><use xlink:href="#c"/></mask><path d="M257.488 29.339h1.684v-10.69h-1.685v10.69zm-4.958-1.528a1.86 1.86 0 001.35-.548c.372-.365.559-.817.559-1.356 0-.54-.187-.993-.56-1.361a1.852 1.852 0 00-1.349-.552h-2.445v3.817h2.445zm-4.122 1.528v-10.69h1.677v3.818h2.445c1.02 0 1.871.334 2.556 1.002a3.275 3.275 0 011.03 2.438 3.26 3.26 0 01-1.03 2.433c-.685.666-1.537.999-2.556.999h-4.122zm19.262-5.237c-.126.703-.279 1.271-.458 1.704-.178.432-.358.808-.537 1.129-.178.32-.333.548-.461.683l-.186.193h5.419v-7.633h-3.586v1.677c0 .795-.063 1.544-.19 2.247zm-3.32 3.709c.05-.04.116-.108.197-.205.082-.097.228-.318.437-.664.208-.345.393-.724.555-1.136.161-.412.31-.976.443-1.689.135-.713.202-1.467.202-2.262V18.65h6.947v9.16h1.297v3.818h-1.684v-2.289h-7.328v2.289h-1.677V27.81h.61zm20.907 1.529h-1.677v-9.162h-3.891v1.677c0 1.536-.075 2.82-.223 3.854-.15 1.033-.375 1.818-.676 2.355-.3.537-.63.908-.99 1.115-.361.206-.8.309-1.316.309a3.02 3.02 0 01-.582-.06 3.804 3.804 0 01-.477-.118l-.164-.046v-1.602c.303.1.581.15.835.15.293 0 .545-.075.756-.22.212-.148.412-.422.601-.825.189-.402.328-1.013.417-1.833.09-.82.134-1.847.134-3.079V18.65h7.253v10.69zm4.78-6.154c.336.335.752.503 1.249.503h2.825v-3.512h-2.825a1.7 1.7 0 00-1.249.504c-.335.335-.503.753-.503 1.252 0 .5.168.917.503 1.253zm5.751 6.153h-1.677v-4.122h-2.445l-2.288 4.122h-1.834l2.445-4.271a1.997 1.997 0 01-.235-.101 4.374 4.374 0 01-.51-.332 3.797 3.797 0 01-.649-.581c-.189-.214-.36-.511-.514-.891a3.24 3.24 0 01-.232-1.226c0-.925.327-1.703.982-2.337.652-.633 1.47-.95 2.455-.95h4.502v10.69zm8.507-5.237c-.127.703-.28 1.271-.459 1.704-.178.432-.357.808-.536 1.129-.178.32-.333.548-.462.683l-.186.193h5.42v-7.633h-3.587v1.677c0 .795-.063 1.544-.19 2.247zm-3.321 3.709c.05-.04.116-.108.198-.205.081-.097.227-.318.436-.664.208-.345.393-.724.555-1.136.162-.412.31-.976.444-1.689a12.19 12.19 0 00.2-2.262V18.65h6.948v9.16h1.298v3.818h-1.685v-2.289h-7.328v2.289h-1.678V27.81h.612zm14.276-.999c.769.77 1.708 1.155 2.82 1.155 1.11 0 2.05-.385 2.816-1.155.768-.77 1.152-1.71 1.152-2.818s-.384-2.046-1.152-2.814c-.767-.767-1.706-1.151-2.817-1.151-1.11 0-2.05.384-2.819 1.151-.767.768-1.151 1.706-1.151 2.814s.384 2.047 1.151 2.818m-1.203-6.716c1.083-1.064 2.424-1.595 4.022-1.595 1.598 0 2.937.531 4.021 1.595 1.084 1.063 1.625 2.363 1.625 3.898 0 1.536-.54 2.836-1.625 3.9-1.084 1.062-2.423 1.594-4.02 1.594-1.599 0-2.94-.532-4.023-1.595-1.083-1.063-1.625-2.363-1.625-3.9 0-1.534.542-2.834 1.625-3.897m21.802-1.446h1.453v10.689h-1.677v-7.782l-3.899 4.882-3.89-4.882v7.782h-1.678v-10.69h1.446l4.123 5.196zm6.788 6.336h3.511l-1.752-4.428-1.76 4.428zm.917-6.337h1.677l4.428 10.69h-1.752l-1.148-2.825h-4.733l-1.148 2.825h-1.752l4.428-10.69z" fill="#812990" mask="url(#d)"/></g></svg>