<svg width="98" height="51" fill="none" xmlns="http://www.w3.org/2000/svg"><path d="M45.091 12.733v11.768H39.21V12.733A5.887 5.887 0 0035.58 7.3a5.873 5.873 0 00-7.679 3.183 5.885 5.885 0 00-.447 2.25v11.768h-5.881V12.733A5.885 5.885 0 0017.945 7.3a5.874 5.874 0 00-7.679 3.183 5.886 5.886 0 00-.447 2.25H3.937V.968H9.82v1.574a11.751 11.751 0 0114.693 2.412 11.755 11.755 0 0112.977-3.23 11.758 11.758 0 017.602 11.01zm-32.338 5.885H.998v5.886h11.755v-5.886zm58.794-5.884v11.768h-5.874V12.734A5.887 5.887 0 0062.042 7.3a5.876 5.876 0 00-8.015 4.29 5.887 5.887 0 002.502 6.04 5.88 5.88 0 003.267.99v5.882a11.75 11.75 0 01-10.863-7.262 11.774 11.774 0 012.546-12.822 11.754 11.754 0 0120.072 8.316M98 12.732V24.5h-5.874V12.732a5.887 5.887 0 00-3.63-5.434 5.876 5.876 0 00-8.016 4.29 5.887 5.887 0 002.502 6.04 5.88 5.88 0 003.267.99V24.5a11.75 11.75 0 01-10.866-7.259 11.774 11.774 0 012.544-12.823A11.754 11.754 0 0198 12.732zM74.486 30.377h5.878a5.877 5.877 0 1011.759 0H98a11.77 11.77 0 01-3.444 8.32 11.753 11.753 0 01-16.626 0 11.77 11.77 0 01-3.444-8.32z" fill="#006872"/></svg>