<svg width="84" height="20" fill="none" xmlns="http://www.w3.org/2000/svg"><g clip-path="url(#clip0)" fill-rule="evenodd" clip-rule="evenodd"><path d="M45.162 4.843c.202.2 2.02 4.997 2.21 5.589.19.634.457 1.242.797 1.811.63.143.689-.485.879-.982 1.034-2.688 2.603-6.608 3.387-9.249.547-1.278.594-1.622-.392-1.622-.987 0-.88.64-1.272 1.469-.344 1.574-1.675 4.902-2.163 6.43 0 .2 0 .2-.25.2-.82-2.273-1.77-5.056-2.697-7.305-.25-.439-.69-.533-.987.45-.499 1.563-1.188 3.422-1.723 4.937 0 0-.642 1.919-.69 2.013a5.908 5.908 0 01-.736-1.764c-.737-1.812-1.379-3.765-2.008-5.577-.155-.344-.155-.545-.5-.746a2.063 2.063 0 00-1.081-.095c-.975.154-.345.936-.143 1.516 1.189 3.185 2.508 7.01 3.827 10.041a.463.463 0 00.796.107c.19-.367 2.603-7.223 2.746-7.223zM.189.592a.932.932 0 00.047.592C.438 2.013-.156 11.462 0 11.841c.48.216 1.02.266 1.533.142.237-.248.142-.485.142-.876 0-1.67.143-3.28.143-4.997.06-.64.107-1.077.107-1.468s0-.344.095-.438c.095-.095 1.652 2.605 1.806 2.9.298.581.88 1.47 1.272 2.156.594 1.078.891.343 1.034.095.345-.439 3.007-5.092 3.197-5.187.178.19.178 4.843.178 5.187 0 2.545-.297 2.794 1.32 2.688.499 0 .546-.391.499-.83V8.62a111.615 111.615 0 01-.226-6.607c0-.249.095-1.184.095-1.326a.964.964 0 00-1.189-.202c-.344.202-.44.64-.689.936-.998 1.764-2.341 3.765-3.28 5.435-.345.592-.345.39-.642 0-.642-.935-1.473-2.546-2.056-3.481L2.15 1.42a4.049 4.049 0 00-.63-.936C1.187.25.533.438.189.592zm62.714 5.482a3.298 3.298 0 013.054-.592c1.569.687 1.771 2.996 1.082 4.121a2.554 2.554 0 01-2.758 1.054 3.572 3.572 0 01-1.378-.592v-3.99zm0-1.67a33.75 33.75 0 010-3.871c0-.533-.19-.628-.69-.438-1.188.497-1.188.296-1.021 1.373.095.545 0 6.856 0 7.744 0 1.753-.25 2.155 2.305 2.89a5.534 5.534 0 004.243-.841c2.508-2.049 1.818-7.827-2.757-7.389a9.194 9.194 0 00-1.189.142c-.154.047-.737.39-.808.39h-.083zm-34.656 7.544a4.556 4.556 0 00.154-1.907 13.886 13.886 0 010-2.013c.143 0 .297.249.595.545.297.296 2.745 2.842 3.137 3.126a1.189 1.189 0 001.034.296c.345 0 .891 0 1.082-.237 0-.343-.69-.888-.987-1.184a18.913 18.913 0 01-1.022-1.078 20.911 20.911 0 01-2.115-2.143c0-.106 2.697-2.368 3.197-2.794.19-.202.392-.249.344-.545a3.196 3.196 0 00-1.877 0c-.238.107-1.866 1.575-2.306 1.966-.143.142-.987 1.03-1.082.982-.142-.45 0-6.571-.095-6.915-.095-.343-1.77.201-1.723.793.093.416.141.841.143 1.268v8.466c0 .296-.095 1.184.107 1.326.462.118.945.134 1.414.048zM15.45 7.934c.547-.142 2.377.296 2.46.781a8.721 8.721 0 010 1.575c-.345.438-2.71 1.315-3.494-.248a1.653 1.653 0 010-1.421 1.518 1.518 0 011.034-.687zm2.508-.592a4.31 4.31 0 00-1.522-.628 5.654 5.654 0 00-2.02.142 2.698 2.698 0 00-1.396.947 2.682 2.682 0 001.3 4.192 4.5 4.5 0 002.9 0c.203-.094.595-.343.738-.39.142-.048.202.343.392.438.19.094 1.081 0 1.33-.237.25-.237.298-.201.143-.545a2.443 2.443 0 01-.237-1.468V6.264a2.06 2.06 0 00-.345-1.42c-.939-1.86-6.596-1.126-6.144.45.451 1.574 1.188-.546 3.684-.25 1.343.143 1.2 1.421 1.2 2.298h-.024zm58.172-.237h-4.076c.054-.486.277-.938.63-1.279.384-.336.868-.54 1.378-.58a1.991 1.991 0 011.474.485 1.635 1.635 0 01.594 1.374zm-4.183 1.267c.297-.142 4.753 0 5.561 0 .809 0 .44-2.64-1.033-3.718a3.99 3.99 0 00-5.825 1.192 3.956 3.956 0 00-.534 2.135 4.015 4.015 0 001.985 3.624c1.32.888 4.86.84 5.3-.533.547-1.765-.736-.782-1.188-.592a4.28 4.28 0 01-1.188.296c-2.627.296-3.269-2.013-3.079-2.404zM54.11 7.105c.042-.506.273-.978.647-1.322a2.036 2.036 0 011.374-.537c1.022-.107 2.21.781 2.008 1.859H54.11zm-.202 1.184h5.515c.642 0 .535-.39.487-.876a3.791 3.791 0 00-2.032-3.164 3.826 3.826 0 00-3.767.12 3.979 3.979 0 00-1.96 3.67 3.686 3.686 0 00.468 2.078 3.714 3.714 0 001.54 1.476c1.675 1.03 4.967.592 5.264-.58 0-.344.238-1.185-.297-.983a6.587 6.587 0 01-2.08.746 2.983 2.983 0 01-2.21-.592c-.428-.344-1.118-1.374-.928-1.895zm26.693 3.706c.297-.296.25-.438.25-.876V9.935c0-1.563-.297-4.156 1.52-4.547.393-.095.488.237.987.142.295-.263.516-.598.642-.971 0-.746-1.188-.888-2.27-.403-.345.154-.63.687-.88.734 0-.438.096-.627-.201-1.018-.381.036-.75.154-1.082.343-.487.237-.582.237-.487.83.095.591 0 4.653 0 5.624.047 1.48.047 1.433 1.521 1.326zm-57.951-.047v-.095c.139-1.203.174-2.415.108-3.623 0-.936.237-2.452 1.271-2.748.832-.296.88.486 1.426 0 1.272-1.326-.44-1.859-1.473-1.42-1.034.438-.892.781-1.189.876a2.357 2.357 0 010-.58c0-.25-.107-.25-.202-.391a2.07 2.07 0 00-1.081.296c-.488.19-.642.237-.488.829.105.908.137 1.822.096 2.735v2.7c.107 1.468-.096 1.575 1.533 1.42z" fill="#fff"/><path d="M44.815 13.523a26.884 26.884 0 00-5.752 1.361c-.582.25-1.188.391-1.77.64-1.19.438-2.306.829-3.483 1.279-.392.142-3.197.97-3.684 1.077-2.377.58-5.942 1.267-8.212.237-1.082-.533-1.189 1.125 1.271 1.717a10.06 10.06 0 004.326-.19c1.189-.248 2.615-.686 3.744-1.03a184.16 184.16 0 013.684-1.077c.297-.107.535-.201.88-.296l1.818-.545c.345-.095.594-.237.891-.343l1.878-.438c.345-.095.594-.19.891-.296a35.784 35.784 0 017.57-.782c.63 0 1.57.154 2.211.249 1.189.142.927-.486.143-.888a12.546 12.546 0 00-6.406-.675z" fill="#F9CC46"/></g><defs><clipPath id="clip0"><path fill="#fff" d="M0 0h84v20H0z"/></clipPath></defs></svg>