<svg width="990" height="715" fill="none" xmlns="http://www.w3.org/2000/svg"><path d="M452.247 705.441H15.33v-43.97l239.06-270.515c39.604-45.564 67.071-83.162 82.401-112.794 15.331-29.633 22.996-58.468 22.996-86.508 0-43.97-12.935-78.701-38.805-104.19-25.87-25.81-61.482-38.714-106.834-38.714-46.95 0-84.956 14.975-114.02 44.927C71.382 123.627 57.01 162.5 57.01 210.293H0c0-39.191 8.783-74.877 26.35-107.059 17.885-32.181 43.116-57.353 75.693-75.514C134.94 9.24 172.308 0 214.147 0c63.877 0 113.7 16.728 149.471 50.184 36.091 33.456 54.136 79.019 54.136 136.691 0 32.5-10.22 68.027-30.661 106.581-20.121 38.554-55.732 86.667-106.834 144.338L85.754 657.169h366.493v48.272zM990 415.331c0 98.137-18.045 172.696-54.135 223.676C899.774 689.669 846.597 715 776.332 715c-68.987 0-121.845-24.853-158.574-74.559-36.729-50.024-55.572-122.671-56.531-217.941V297.757c0-97.818 18.205-171.899 54.615-222.242C652.252 25.172 705.429 0 775.374 0c68.987 0 121.685 24.375 158.095 73.125 36.41 48.431 55.254 119.963 56.531 214.596v127.61zm-57.489-124.743c0-79.657-13.095-139.877-39.284-180.662-25.87-40.784-65.154-61.176-117.853-61.176-51.74 0-90.705 19.914-116.894 59.743-26.19 39.828-39.604 98.615-40.243 176.36v136.691c0 79.338 13.415 140.037 40.243 182.096 27.147 42.059 66.432 63.088 117.852 63.088 51.102 0 89.747-20.552 115.937-61.654 26.508-41.103 39.923-101.324 40.242-180.662V290.588z" fill="#fff"/></svg>