<svg width="98" height="51" viewBox="0 0 98 51" fill="none" xmlns="http://www.w3.org/2000/svg">
<path d="M45.0911 12.7335V24.5009H39.2098V12.7335C39.2098 11.9611 39.0577 11.1963 38.7624 10.4827C38.467 9.76909 38.0341 9.12069 37.4883 8.57452C36.9425 8.02835 36.2946 7.59511 35.5815 7.29952C34.8685 7.00394 34.1042 6.8518 33.3324 6.8518C32.5605 6.8518 31.7963 7.00394 31.0832 7.29952C30.3701 7.59511 29.7222 8.02835 29.1764 8.57452C28.6307 9.12069 28.1977 9.76909 27.9024 10.4827C27.607 11.1963 27.455 11.9611 27.455 12.7335V24.5009H21.5736V12.7335C21.5736 11.9611 21.4216 11.1963 21.1262 10.4827C20.8309 9.76909 20.3979 9.12069 19.8522 8.57452C19.3064 8.02835 18.6585 7.59511 17.9454 7.29952C17.2323 7.00394 16.4681 6.8518 15.6962 6.8518C14.9244 6.8518 14.1601 7.00394 13.4471 7.29952C12.734 7.59511 12.0861 8.02835 11.5403 8.57452C10.9945 9.12069 10.5616 9.76909 10.2662 10.4827C9.97088 11.1963 9.81886 11.9611 9.81886 12.7335H3.9375V0.968094H9.81886V2.54185C12.17 1.18531 14.9176 0.684394 17.5957 1.12407C20.2738 1.56375 22.7175 2.91695 24.5123 4.95415C26.0913 3.1603 28.179 1.89038 30.4972 1.31348C32.8154 0.736576 35.2542 0.880067 37.4889 1.72485C39.7236 2.56963 41.6482 4.07561 43.0063 6.04227C44.3644 8.00893 45.0916 10.3429 45.0911 12.7335Z" fill="#006872"/>
<path d="M12.7528 18.6178H0.998047V24.5035H12.7528V18.6178Z" fill="#006872"/>
<path d="M71.5467 12.7342V24.5016H65.6732V12.7342C65.6728 11.5705 65.3276 10.433 64.6813 9.46568C64.0349 8.49832 63.1164 7.7445 62.042 7.29954C60.9675 6.85458 59.7853 6.73846 58.6449 6.96587C57.5045 7.19328 56.4571 7.75401 55.6351 8.57714C54.8132 9.40026 54.2536 10.4488 54.0271 11.5902C53.8006 12.7316 53.9174 13.9146 54.3628 14.9896C54.8082 16.0645 55.562 16.9832 56.5291 17.6294C57.4962 18.2756 58.633 18.6202 59.7959 18.6199V24.5016C57.4706 24.502 55.1974 23.8123 53.2638 22.5198C51.3302 21.2274 49.823 19.3901 48.9328 17.2404C48.0426 15.0907 47.8094 12.7251 48.2626 10.4428C48.7159 8.16042 49.8353 6.06383 51.4792 4.41813C53.1231 2.77243 55.2178 1.65152 57.4983 1.19717C59.7788 0.742808 62.1427 0.975404 64.2912 1.86554C66.4396 2.75567 68.276 4.26337 69.5681 6.19796C70.8603 8.13256 71.5502 10.4072 71.5506 12.7342" fill="#006872"/>
<path d="M97.9998 12.7322V24.4996H92.1264V12.7322C92.126 11.5685 91.7808 10.431 91.1345 9.46368C90.4881 8.49633 89.5696 7.74251 88.4952 7.29755C87.4207 6.85259 86.2385 6.73647 85.0981 6.96388C83.9577 7.19129 82.9103 7.75201 82.0883 8.57514C81.2663 9.39827 80.7067 10.4468 80.4803 11.5882C80.2538 12.7296 80.3706 13.9126 80.816 14.9876C81.2614 16.0625 82.0152 16.9812 82.9823 17.6274C83.9494 18.2736 85.0862 18.6183 86.249 18.6179V24.4996C83.9236 24.5008 81.6501 23.8118 79.7159 22.5198C77.7818 21.2278 76.274 19.3908 75.3832 17.2412C74.4924 15.0915 74.2586 12.7258 74.7114 10.4432C75.1642 8.16061 76.2832 6.06364 77.927 4.41754C79.5708 2.77144 81.6654 1.65015 83.9461 1.19547C86.2267 0.740786 88.5908 0.973149 90.7395 1.86317C92.8881 2.75318 94.7247 4.26088 96.0171 6.19556C97.3095 8.13024 97.9995 10.405 97.9998 12.7322Z" fill="#006872"/>
<path d="M74.4863 30.3773H80.3637C80.3637 31.9377 80.9831 33.4343 82.0857 34.5377C83.1883 35.6411 84.6838 36.261 86.2431 36.261C87.8024 36.261 89.2978 35.6411 90.4004 34.5377C91.503 33.4343 92.1225 31.9377 92.1225 30.3773H97.9998C97.9998 33.4977 96.7612 36.4903 94.5564 38.6967C92.3516 40.9031 89.3612 42.1427 86.2431 42.1427C83.125 42.1427 80.1346 40.9031 77.9298 38.6967C75.725 36.4903 74.4863 33.4977 74.4863 30.3773Z" fill="#006872"/>
</svg>
