<svg width="84" height="20" viewBox="0 0 84 20" fill="none" xmlns="http://www.w3.org/2000/svg">
<g clip-path="url(#clip0)">
<path fill-rule="evenodd" clip-rule="evenodd" d="M45.1617 4.84255C45.3637 5.04386 47.1821 9.83959 47.3722 10.4317C47.5616 11.066 47.829 11.6745 48.1685 12.2434C48.7984 12.3855 48.8578 11.7579 49.0479 11.2606C50.0819 8.57257 51.6507 4.65309 52.435 2.01248C52.9817 0.733613 53.0293 0.390214 52.0428 0.390214C51.0564 0.390214 51.1634 1.02965 50.7712 1.85854C50.4266 3.43343 49.0955 6.76085 48.6082 8.28838C48.6082 8.48968 48.6082 8.48968 48.3586 8.48968C47.5386 6.21615 46.5878 3.43343 45.6608 1.18358C45.4113 0.745454 44.9715 0.650723 44.6744 1.63355C44.1753 3.19661 43.486 5.0557 42.9512 6.57139C42.9512 6.57139 42.3094 8.48968 42.2619 8.58441C41.922 8.03993 41.6731 7.44405 41.525 6.82005C40.7882 5.00833 40.1464 3.05451 39.5165 1.24279C39.362 0.899391 39.362 0.698089 39.0174 0.496786C38.6719 0.369234 38.2984 0.336517 37.9359 0.402055C36.9614 0.555993 37.5912 1.33752 37.7933 1.91775C38.9817 5.10306 40.3009 8.92781 41.6201 11.9592C41.651 12.0343 41.7012 12.1 41.7656 12.1496C41.8301 12.1992 41.9066 12.231 41.9873 12.2419C42.068 12.2527 42.1502 12.2421 42.2255 12.2112C42.3009 12.1802 42.3667 12.1301 42.4164 12.0658C42.6065 11.6987 45.0191 4.84255 45.1617 4.84255Z" fill="white"/>
<path fill-rule="evenodd" clip-rule="evenodd" d="M0.188765 0.592048C0.139638 0.789309 0.156326 0.997144 0.236303 1.18411C0.438341 2.01301 -0.155887 11.4624 -0.00138777 11.8413C0.479669 12.0568 1.01902 12.1068 1.53172 11.9834C1.76941 11.7347 1.67433 11.4979 1.67433 11.1071C1.67433 9.43752 1.81695 7.8271 1.81695 6.11011C1.87637 5.47067 1.92391 5.03255 1.92391 4.64178C1.92391 4.25102 1.92391 4.29838 2.01899 4.20365C2.11406 4.10892 3.67094 6.80874 3.82544 7.10478C4.12255 7.685 4.70489 8.5731 5.09708 9.2599C5.69131 10.3375 5.98843 9.6033 6.13104 9.35463C6.47569 8.9165 9.13783 4.26286 9.32798 4.16813C9.50625 4.35759 9.50625 9.01123 9.50625 9.35463C9.50625 11.9005 9.20914 12.1492 10.8254 12.0426C11.3246 12.0426 11.3721 11.6518 11.3246 11.2137C11.3246 10.3848 11.3246 9.44936 11.3246 8.62047C11.1939 6.51271 11.0988 4.10892 11.0988 2.01301C11.0988 1.76434 11.1939 0.828874 11.1939 0.686779C11.0484 0.523421 10.8513 0.414429 10.6352 0.377826C10.4191 0.341222 10.1969 0.379199 10.0054 0.485476C9.66075 0.686779 9.56567 1.12491 9.3161 1.42094C8.3178 3.1853 6.97484 5.18648 6.03596 6.85611C5.69131 7.44818 5.69131 7.24687 5.3942 6.85611C4.75243 5.92064 3.92051 4.31022 3.33817 3.37476L2.14972 1.42094C1.98452 1.0814 1.77251 0.766537 1.51983 0.485476C1.18707 0.24865 0.533417 0.438111 0.188765 0.592048Z" fill="white"/>
<path fill-rule="evenodd" clip-rule="evenodd" d="M62.9029 6.07444C63.3236 5.73247 63.8226 5.49946 64.3555 5.39616C64.8884 5.29286 65.4386 5.32248 65.9573 5.48237C67.526 6.16917 67.7281 8.47823 67.0388 9.60315C66.7452 10.0416 66.3223 10.3784 65.8284 10.5672C65.3346 10.7559 64.7941 10.7873 64.2815 10.657C63.785 10.5594 63.3151 10.3576 62.9029 10.065V6.07444ZM62.9029 4.40481C62.8288 3.11516 62.8288 1.82235 62.9029 0.532698C62.9029 -0.00016202 62.7128 -0.0948926 62.2136 0.0945686C61.0252 0.591904 61.0252 0.390602 61.1916 1.46816C61.2866 2.01286 61.1916 8.32429 61.1916 9.21239C61.1916 10.9649 60.942 11.3675 63.4972 12.1017C64.2247 12.2537 64.9756 12.2576 65.7047 12.1131C66.4339 11.9687 67.1261 11.6788 67.7399 11.2609C70.2476 9.21239 69.5583 3.43382 64.9827 3.87195C64.5839 3.89346 64.1869 3.94092 63.7943 4.01405C63.6398 4.06141 63.0574 4.40481 62.9861 4.40481H62.9029Z" fill="white"/>
<path fill-rule="evenodd" clip-rule="evenodd" d="M28.2469 11.9477C28.4327 11.3301 28.4854 10.6804 28.4014 10.0412C28.3527 9.37107 28.3527 8.69831 28.4014 8.02818C28.544 8.02818 28.6985 8.27684 28.9956 8.57288C29.2927 8.86891 31.7409 11.4148 32.1331 11.699C32.2699 11.8259 32.4349 11.9188 32.6145 11.9702C32.7942 12.0217 32.9835 12.0302 33.1671 11.995C33.5117 11.995 34.0584 11.995 34.2486 11.7582C34.2486 11.4148 33.5593 10.8701 33.2621 10.5741C32.965 10.278 32.5847 9.89911 32.2401 9.4965C31.4841 8.83365 30.7772 8.11737 30.1246 7.35322C30.1246 7.24665 32.8224 4.98495 33.3216 4.55867C33.5117 4.35736 33.7138 4.31 33.6662 4.01396C33.0545 3.82595 32.4002 3.82595 31.7885 4.01396C31.5508 4.12054 29.9226 5.58886 29.4829 5.97963C29.3402 6.12172 28.4964 7.00982 28.4014 6.96246C28.2587 6.51249 28.4014 0.390519 28.3063 0.0471202C28.2112 -0.296278 26.5355 0.248423 26.583 0.840489C26.6762 1.25648 26.724 1.68129 26.7256 2.10751V10.5741C26.7256 10.8701 26.6306 11.7582 26.8326 11.9003C27.295 12.018 27.7776 12.0342 28.2469 11.9477Z" fill="white"/>
<path fill-rule="evenodd" clip-rule="evenodd" d="M15.4499 7.93374C15.9966 7.79164 17.8268 8.22977 17.91 8.71526C17.9575 9.23916 17.9575 9.76626 17.91 10.2902C17.5653 10.7283 15.2003 11.6045 14.4159 10.0415C14.3102 9.81945 14.2554 9.57677 14.2554 9.33101C14.2554 9.08526 14.3102 8.84257 14.4159 8.62053C14.53 8.43999 14.6811 8.2855 14.8593 8.16714C15.0375 8.04879 15.2387 7.96926 15.4499 7.93374ZM17.9575 7.34167C17.4957 7.03684 16.9792 6.82375 16.4363 6.71408C15.7598 6.63944 15.0752 6.68758 14.4159 6.85617C13.8608 7.01459 13.3713 7.34631 13.0195 7.80255C12.6677 8.25878 12.472 8.81546 12.4614 9.39072C12.4508 9.96598 12.6256 10.5295 12.9604 10.9983C13.2951 11.4672 13.7719 11.8166 14.3208 11.9953C15.2609 12.3147 16.2806 12.3147 17.2207 11.9953C17.4227 11.9006 17.8149 11.6519 17.9575 11.6045C18.1001 11.5572 18.1596 11.9479 18.3497 12.0427C18.5399 12.1374 19.4312 12.0427 19.6808 11.8059C19.9304 11.569 19.9779 11.6045 19.8234 11.2611C19.5934 10.808 19.5104 10.295 19.5857 9.79282V6.26411C19.6479 5.76447 19.5254 5.25936 19.241 4.84315C18.3022 2.98406 12.6451 3.71822 13.0967 5.29312C13.5484 6.86802 14.2852 4.74842 16.7809 5.04445C18.1239 5.18655 17.9813 6.46541 17.9813 7.34167H17.9575Z" fill="white"/>
<path fill-rule="evenodd" clip-rule="evenodd" d="M76.1299 7.1049H72.0535C72.1081 6.61869 72.3308 6.16657 72.6834 5.82604C73.0682 5.48977 73.5517 5.28627 74.062 5.24581C74.3278 5.22394 74.5952 5.25565 74.8484 5.33907C75.1016 5.42248 75.3354 5.55588 75.5357 5.73131C75.7373 5.8966 75.8964 6.10747 75.9998 6.34638C76.1031 6.5853 76.1477 6.84535 76.1299 7.1049ZM71.9465 8.37192C72.2436 8.22983 76.7003 8.37192 77.5085 8.37192C78.3166 8.37192 77.9482 5.73131 76.4745 4.65374C75.8725 4.20653 75.1558 3.93808 74.4071 3.87941C73.6585 3.82073 72.9084 3.97421 72.2436 4.32214C71.5788 4.67006 71.0262 5.19823 70.6498 5.84568C70.2734 6.49313 70.0885 7.23344 70.1163 7.98116C70.0881 8.70738 70.2577 9.42766 70.6071 10.0656C70.9565 10.7035 71.4728 11.2354 72.101 11.6046C73.4202 12.4927 76.9618 12.4453 77.4015 11.0717C77.9482 9.30739 76.6647 10.2902 76.2131 10.4797C75.8333 10.6348 75.433 10.7345 75.0246 10.7757C72.3981 11.0717 71.7564 8.76268 71.9465 8.37192Z" fill="white"/>
<path fill-rule="evenodd" clip-rule="evenodd" d="M54.1105 7.10498C54.1522 6.59922 54.383 6.1275 54.7572 5.7832C55.1313 5.43891 55.6216 5.24715 56.1309 5.24589C57.153 5.13932 58.3414 6.02742 58.1394 7.10498H54.1105ZM53.9085 8.28911C54.1581 8.28911 58.7812 8.28911 59.4229 8.28911C60.0647 8.28911 59.9577 7.89834 59.9102 7.41285C59.8755 6.75536 59.6699 6.11814 59.3137 5.56359C58.9575 5.00905 58.4628 4.5562 57.8782 4.24941C57.2935 3.94261 56.6389 3.7924 55.9784 3.81347C55.3179 3.83455 54.6743 4.02619 54.1105 4.36963C53.4766 4.74278 52.9582 5.28283 52.6122 5.93042C52.2663 6.57802 52.1062 7.3081 52.1496 8.04044C52.0991 8.76337 52.2625 9.48517 52.6195 10.1165C52.9765 10.7479 53.5114 11.2612 54.1581 11.5928C55.8338 12.623 59.1258 12.1849 59.4229 11.0126C59.4229 10.6692 59.6606 9.82848 59.1258 10.0298C58.4798 10.3937 57.7766 10.6459 57.046 10.7758C56.6566 10.8276 56.2607 10.802 55.8812 10.7004C55.5018 10.5987 55.1464 10.4231 54.8355 10.1837C54.4076 9.84032 53.7183 8.81013 53.9085 8.28911Z" fill="white"/>
<path fill-rule="evenodd" clip-rule="evenodd" d="M80.6011 11.9952C80.8982 11.6992 80.8507 11.5571 80.8507 11.119V9.93483C80.8507 8.37177 80.5536 5.77852 82.3719 5.38776C82.7641 5.29303 82.8592 5.62459 83.3583 5.52986C83.6527 5.26673 83.8737 4.93224 84.0001 4.55887C84.0001 3.81286 82.8116 3.67077 81.7301 4.15626C81.3855 4.3102 81.1002 4.84306 80.8507 4.89042C80.8507 4.4523 80.9457 4.26283 80.6486 3.87207C80.2677 3.90847 79.899 4.02555 79.5671 4.21547C79.0799 4.4523 78.9848 4.4523 79.0799 5.04436C79.1749 5.63643 79.0799 9.698 79.0799 10.669C79.1274 12.1492 79.1274 12.1018 80.6011 11.9952Z" fill="white"/>
<path fill-rule="evenodd" clip-rule="evenodd" d="M22.6506 11.9478V11.8531C22.7885 10.6504 22.8243 9.43832 22.7576 8.22965C22.7576 7.29419 22.9952 5.7785 24.0292 5.48247C24.8611 5.18643 24.9087 5.96796 25.4554 5.48247C26.727 4.15624 25.0156 3.62338 23.9817 4.06151C22.9477 4.49964 23.0903 4.84304 22.7932 4.93777C22.7693 4.74509 22.7693 4.55022 22.7932 4.35754C22.7932 4.10887 22.6863 4.10887 22.5912 3.96678C22.2101 3.96369 21.8357 4.06618 21.5097 4.26281C21.0224 4.45227 20.8679 4.49964 21.0224 5.0917C21.127 5.99952 21.1588 6.9142 21.1175 7.82705V10.5269C21.2245 11.9952 21.0224 12.1018 22.6506 11.9478Z" fill="white"/>
<path fill-rule="evenodd" clip-rule="evenodd" d="M44.8152 13.5227C42.8533 13.7639 40.9242 14.2206 39.0631 14.8845C38.4808 15.1332 37.8746 15.2753 37.2923 15.5239C36.1038 15.9621 34.9867 16.3528 33.8101 16.8028C33.4179 16.9449 30.6132 17.7738 30.1259 17.8804C27.749 18.4606 24.1836 19.1474 21.9137 18.1172C20.8322 17.5843 20.7252 19.2421 23.1853 19.8342C24.624 20.0852 26.1003 20.0206 27.5113 19.6447C28.6998 19.396 30.1259 18.9579 31.2549 18.6145C32.384 18.2711 33.7151 17.8804 34.9392 17.537C35.2363 17.4304 35.474 17.3357 35.8186 17.2409L37.637 16.6962C37.9816 16.6015 38.2312 16.4594 38.5283 16.3528L40.4061 15.9147C40.7507 15.82 41.0003 15.7252 41.2974 15.6187C43.7857 15.0898 46.3236 14.8278 48.8679 14.8371C49.4977 14.8371 50.4366 14.9911 51.0784 15.0858C52.2668 15.2279 52.0054 14.6003 51.221 14.1977C49.1816 13.4191 46.973 13.1864 44.8152 13.5227Z" fill="#F9CC46"/>
</g>
<defs>
<clipPath id="clip0">
<rect width="84" height="20" fill="white"/>
</clipPath>
</defs>
</svg>
