<svg width="990" height="715" viewBox="0 0 990 715" fill="none" xmlns="http://www.w3.org/2000/svg">
<path d="M452.247 705.441H15.3304V661.471L254.389 390.956C293.993 345.392 321.46 307.794 336.79 278.162C352.121 248.529 359.786 219.694 359.786 191.654C359.786 147.684 346.851 112.953 320.981 87.4632C295.111 61.6544 259.499 48.75 214.147 48.75C167.197 48.75 129.191 63.7255 100.127 93.6765C71.3823 123.627 57.01 162.5 57.01 210.294H0C0 171.103 8.78305 135.417 26.3492 103.235C44.2346 71.0539 69.466 45.8824 102.043 27.7206C134.94 9.2402 172.308 0 214.147 0C278.024 0 327.847 16.7279 363.618 50.1838C399.709 83.6397 417.754 129.203 417.754 186.875C417.754 219.375 407.534 254.902 387.093 293.456C366.972 332.01 331.361 380.123 280.259 437.794L85.7545 657.169H452.247V705.441Z" fill="white"/>
<path d="M990 415.331C990 513.468 971.955 588.027 935.865 639.007C899.774 689.669 846.597 715 776.332 715C707.345 715 654.487 690.147 617.758 640.441C581.029 590.417 562.186 517.77 561.227 422.5V297.757C561.227 199.939 579.432 125.858 615.842 75.5147C652.252 25.1716 705.429 0 775.374 0C844.361 0 897.059 24.375 933.469 73.125C969.879 121.556 988.723 193.088 990 287.721V415.331ZM932.511 290.588C932.511 210.931 919.416 150.711 893.227 109.926C867.357 69.1422 828.073 48.75 775.374 48.75C723.634 48.75 684.669 68.6642 658.48 108.493C632.29 148.321 618.876 207.108 618.237 284.853V421.544C618.237 500.882 631.652 561.581 658.48 603.64C685.627 645.699 724.912 666.728 776.332 666.728C827.434 666.728 866.079 646.176 892.269 605.074C918.777 563.971 932.192 503.75 932.511 424.412V290.588Z" fill="white"/>
</svg>
