<svg width="19" height="30" viewBox="0 0 19 30" fill="none" xmlns="http://www.w3.org/2000/svg">
	<g opacity="0.5">
		<path d="M9.5 0C4.26542 0 0 4.27885 0 9.52991C0 17.9033 8.62136 29.2655 8.98879 29.7436C9.1086 29.9012 9.30297 30 9.5 30C9.69703 30 9.8914 29.9012 10.0112 29.7436C10.3786 29.2575 19 17.711 19 9.52991C19 4.27885 14.7346 0 9.5 0ZM9.5 6.11111C11.7578 6.11111 13.5897 7.94872 13.5897 10.2137C13.5897 12.4786 11.7578 14.3162 9.5 14.3162C7.24215 14.3162 5.41031 12.4786 5.41031 10.2137C5.41031 7.94872 7.24215 6.11111 9.5 6.11111Z" fill="#006872"/>
	</g>
</svg>
