<svg width="32" height="50" viewBox="0 0 32 50" fill="none" xmlns="http://www.w3.org/2000/svg">
<path d="M16 0C7.18386 0 0 7.13141 0 15.8832C0 29.8389 14.5202 48.7758 15.139 49.5726C15.3408 49.8353 15.6682 50 16 50C16.3318 50 16.6592 49.8353 16.861 49.5726C17.4798 48.7625 32 29.5183 32 15.8832C32 7.13141 24.8161 0 16 0ZM16 10.1852C19.8027 10.1852 22.8879 13.2479 22.8879 17.0228C22.8879 20.7977 19.8027 23.8604 16 23.8604C12.1973 23.8604 9.11211 20.7977 9.11211 17.0228C9.11211 13.2479 12.1973 10.1852 16 10.1852Z" fill="white"/>
</svg>
