<svg width="20" height="12" viewBox="0 0 20 12" fill="none" xmlns="http://www.w3.org/2000/svg">
<path d="M17.5398 7.6C19.0898 9.04 19.4098 9.73 19.4598 9.82C20.0998 10.88 18.7598 10.96 18.7598 10.96L16.1798 11C16.1798 11 15.6198 11.11 14.8998 10.61C13.9298 9.95 12.9998 8.22 12.3098 8.45C11.5998 8.68 11.6198 10.23 11.6198 10.23C11.6198 10.23 11.6198 10.45 11.4598 10.62C11.2798 10.81 10.9298 10.74 10.9298 10.74H9.77984C9.77984 10.74 7.22984 11 4.99984 8.67C2.54984 6.13 0.389845 1.13 0.389845 1.13C0.389845 1.13 0.269845 0.83 0.399845 0.66C0.549845 0.5 0.969845 0.5 0.969845 0.5H3.72984C3.72984 0.5 3.99984 0.5 4.16984 0.66C4.31984 0.77 4.40984 1 4.40984 1C4.40984 1 4.84984 2.11 5.44984 3.13C6.59984 5.12 7.12984 5.55 7.49984 5.34C8.09984 5.03 7.92984 2.53 7.92984 2.53C7.92984 2.53 7.93985 1.62 7.63984 1.22C7.40984 0.91 6.96984 0.81 6.77984 0.79C6.61984 0.77 6.87984 0.41 7.20984 0.24C7.70984 -2.23517e-07 8.57984 0 9.61984 0C10.4298 0 10.6598 0.0600001 10.9698 0.13C11.9298 0.36 11.5998 1.25 11.5998 3.37C11.5998 4.06 11.4998 5 11.9698 5.33C12.1798 5.47 12.6998 5.35 13.9998 3.16C14.5998 2.12 15.0598 0.89 15.0598 0.89C15.0598 0.89 15.1598 0.68 15.3098 0.58C15.4698 0.5 15.6898 0.5 15.6898 0.5H18.5898C18.5898 0.5 19.4698 0.4 19.6098 0.79C19.7598 1.2 19.2798 2.17 18.0898 3.74C16.1498 6.34 15.9298 6.1 17.5398 7.6Z" fill="white"/>
</svg>
